ffmpeg version 4.4.2-0ubuntu0.22.04.1 Copyright (c) 2000-2021 the FFmpeg developers
  built with gcc 11 (Ubuntu 11.2.0-19ubuntu1)
  configuration: --prefix=/usr --extra-version=0ubuntu0.22.04.1 --toolchain=hardened --libdir=/usr/lib/x86_64-linux-gnu --incdir=/usr/include/x86_64-linux-gnu --arch=amd64 --enable-gpl --disable-stripping --enable-gnutls --enable-ladspa --enable-libaom --enable-libass --enable-libbluray --enable-libbs2b --enable-libcaca --enable-libcdio --enable-libcodec2 --enable-libdav1d --enable-libflite --enable-libfontconfig --enable-libfreetype --enable-libfribidi --enable-libgme --enable-libgsm --enable-libjack --enable-libmp3lame --enable-libmysofa --enable-libopenjpeg --enable-libopenmpt --enable-libopus --enable-libpulse --enable-librabbitmq --enable-librubberband --enable-libshine --enable-libsnappy --enable-libsoxr --enable-libspeex --enable-libsrt --enable-libssh --enable-libtheora --enable-libtwolame --enable-libvidstab --enable-libvorbis --enable-libvpx --enable-libwebp --enable-libx265 --enable-libxml2 --enable-libxvid --enable-libzimg --enable-libzmq --enable-libzvbi --enable-lv2 --enable-omx --enable-openal --enable-opencl --enable-opengl --enable-sdl2 --enable-pocketsphinx --enable-librsvg --enable-libmfx --enable-libdc1394 --enable-libdrm --enable-libiec61883 --enable-chromaprint --enable-frei0r --enable-libx264 --enable-shared
  libavutil      56. 70.100 / 56. 70.100
  libavcodec     58.134.100 / 58.134.100
  libavformat    58. 76.100 / 58. 76.100
  libavdevice    58. 13.100 / 58. 13.100
  libavfilter     7.110.100 /  7.110.100
  libswscale      5.  9.100 /  5.  9.100
  libswresample   3.  9.100 /  3.  9.100
  libpostproc    55.  9.100 / 55.  9.100
Input #0, flv, from '/storage/32426326/20250725/32426326-20250725-145329-034.flv':
  Metadata:
    encoder         : obs-output module (libobs version 31.0.2)
    audiochannels   : 2
    fps             : 60
    4.1             : false
    displayHeight   : 1440
    cdn_ip          : 192.168.252.6
    4.0             : false
    displayWidth    : 2560
    2.1             : false
    7.1             : false
    5.1             : false
    3.1             : false
    fileSize        : 0
    Title           : 技术主播没有GG
    Artist          : 蓝音BuBuLine (32426326)
    Comment         : mikufans直播间 32426326 的直播录像
                    : 主播名: 蓝音BuBuLine
                    : 直播标题: 技术主播没有GG
                    : 直播分区: 单机游戏·主机游戏
                    : 录制时间: 2025-07-25T14:53:29.0445369+00:00
                    : 直播服务器:
                    : d1--ov-gotcha07.bilivideo.com [156.59.188.246]
                    : 
                    : 使用 mikufans录播姬 录制 https://rec.danmuji.org
                    : 录播姬版本: 2.17.3
    RecordedBy      : BililiveRecorder mikufans录播姬
    RecordedFrom    : d1--ov-gotcha07.bilivideo.com
    StreamServers   : d1--ov-gotcha07.bilivideo.com [156.59.188.246]
    RecorderVersion : 2.17.3+Branch.tags-v2.17.3.Sha.96407e2eba9a597dd9997c6fb731725f4294a371
    StartTime       : Fri, 25 Jul 2025 14:53:29 +0000
    RoomId          : 32426326
    ShortId         : 0
    Name            : 蓝音BuBuLine
    StreamTitle     : 技术主播没有GG
    AreaNameParent  : 单机游戏
    AreaNameChild   : 主机游戏
  Duration: 07:12:18.89, start: 0.035000, bitrate: 8252 kb/s
  Stream #0:0: Video: h264 (High), yuv420p(tv, bt709, progressive), 2560x1440 [SAR 1:1 DAR 16:9], 10240 kb/s, 60 fps, 60 tbr, 1k tbn, 120 tbc
  Stream #0:1: Audio: aac (LC), 48000 Hz, stereo, fltp, 196 kb/s
Stream mapping:
  Stream #0:0 -> #0:0 (h264 (native) -> png (native))
Press [q] to stop, [?] for help
Output #0, image2, to '/storage/32426326/20250725/32426326-20250725-145329-034.all.thumb.png':
  Metadata:
    AreaNameChild   : 主机游戏
    audiochannels   : 2
    fps             : 60
    4.1             : false
    displayHeight   : 1440
    cdn_ip          : 192.168.252.6
    4.0             : false
    displayWidth    : 2560
    2.1             : false
    7.1             : false
    5.1             : false
    3.1             : false
    fileSize        : 0
    Title           : 技术主播没有GG
    Artist          : 蓝音BuBuLine (32426326)
    Comment         : mikufans直播间 32426326 的直播录像
                    : 主播名: 蓝音BuBuLine
                    : 直播标题: 技术主播没有GG
                    : 直播分区: 单机游戏·主机游戏
                    : 录制时间: 2025-07-25T14:53:29.0445369+00:00
                    : 直播服务器:
                    : d1--ov-gotcha07.bilivideo.com [156.59.188.246]
                    : 
                    : 使用 mikufans录播姬 录制 https://rec.danmuji.org
                    : 录播姬版本: 2.17.3
    RecordedBy      : BililiveRecorder mikufans录播姬
    RecordedFrom    : d1--ov-gotcha07.bilivideo.com
    StreamServers   : d1--ov-gotcha07.bilivideo.com [156.59.188.246]
    RecorderVersion : 2.17.3+Branch.tags-v2.17.3.Sha.96407e2eba9a597dd9997c6fb731725f4294a371
    StartTime       : Fri, 25 Jul 2025 14:53:29 +0000
    RoomId          : 32426326
    ShortId         : 0
    Name            : 蓝音BuBuLine
    StreamTitle     : 技术主播没有GG
    AreaNameParent  : 单机游戏
    encoder         : Lavf58.76.100
  Stream #0:0: Video: png, rgb24(pc, gbr/bt709/bt709, progressive), 2560x1440 [SAR 1:1 DAR 16:9], q=2-31, 200 kb/s, 60 fps, 60 tbn
    Metadata:
      encoder         : Lavc58.134.100 png
frame=    1 fps=0.0 q=0.0 size=N/A time=00:00:00.00 bitrate=N/A speed=   0x    frame=    1 fps=0.0 q=-0.0 Lsize=N/A time=00:00:00.01 bitrate=N/A speed=0.0427x    
video:3178kB audio:0kB subtitle:0kB other streams:0kB global headers:0kB muxing overhead: unknown
ffmpeg version 4.4.2-0ubuntu0.22.04.1 Copyright (c) 2000-2021 the FFmpeg developers
  built with gcc 11 (Ubuntu 11.2.0-19ubuntu1)
  configuration: --prefix=/usr --extra-version=0ubuntu0.22.04.1 --toolchain=hardened --libdir=/usr/lib/x86_64-linux-gnu --incdir=/usr/include/x86_64-linux-gnu --arch=amd64 --enable-gpl --disable-stripping --enable-gnutls --enable-ladspa --enable-libaom --enable-libass --enable-libbluray --enable-libbs2b --enable-libcaca --enable-libcdio --enable-libcodec2 --enable-libdav1d --enable-libflite --enable-libfontconfig --enable-libfreetype --enable-libfribidi --enable-libgme --enable-libgsm --enable-libjack --enable-libmp3lame --enable-libmysofa --enable-libopenjpeg --enable-libopenmpt --enable-libopus --enable-libpulse --enable-librabbitmq --enable-librubberband --enable-libshine --enable-libsnappy --enable-libsoxr --enable-libspeex --enable-libsrt --enable-libssh --enable-libtheora --enable-libtwolame --enable-libvidstab --enable-libvorbis --enable-libvpx --enable-libwebp --enable-libx265 --enable-libxml2 --enable-libxvid --enable-libzimg --enable-libzmq --enable-libzvbi --enable-lv2 --enable-omx --enable-openal --enable-opencl --enable-opengl --enable-sdl2 --enable-pocketsphinx --enable-librsvg --enable-libmfx --enable-libdc1394 --enable-libdrm --enable-libiec61883 --enable-chromaprint --enable-frei0r --enable-libx264 --enable-shared
  libavutil      56. 70.100 / 56. 70.100
  libavcodec     58.134.100 / 58.134.100
  libavformat    58. 76.100 / 58. 76.100
  libavdevice    58. 13.100 / 58. 13.100
  libavfilter     7.110.100 /  7.110.100
  libswscale      5.  9.100 /  5.  9.100
  libswresample   3.  9.100 /  3.  9.100
  libpostproc    55.  9.100 / 55.  9.100
[flv @ 0x5d268bfee400] Auto-inserting h264_mp4toannexb bitstream filter
Input #0, concat, from '/storage/32426326/20250725/32426326-20250725-145329-034.all.concat.txt':
  Duration: N/A, start: 0.000000, bitrate: 10436 kb/s
  Stream #0:0: Video: h264 (High), yuv420p(tv, bt709, progressive), 2560x1440 [SAR 1:1 DAR 16:9], 10240 kb/s, 60 fps, 60 tbr, 1k tbn, 120 tbc
  Stream #0:1: Audio: aac (LC), 48000 Hz, stereo, fltp, 196 kb/s
Output #0, flv, to '/storage/32426326/20250725/32426326-20250725-145329-034.all.flv':
  Metadata:
    encoder         : Lavf58.76.100
  Stream #0:0: Video: h264 (High) ([7][0][0][0] / 0x0007), yuv420p(tv, bt709, progressive), 2560x1440 [SAR 1:1 DAR 16:9], q=2-31, 10240 kb/s, 60 fps, 60 tbr, 1k tbn, 1k tbc
  Stream #0:1: Audio: aac (LC) ([10][0][0][0] / 0x000A), 48000 Hz, stereo, fltp, 196 kb/s
Stream mapping:
  Stream #0:0 -> #0:0 (copy)
  Stream #0:1 -> #0:1 (copy)
Press [q] to stop, [?] for help
frame=    1 fps=0.0 q=-1.0 size=       0kB time=00:00:00.00 bitrate=N/A speed=N/A    frame= 4412 fps=0.0 q=-1.0 size=   28928kB time=00:01:13.63 bitrate=3218.5kbits/s speed= 147x    frame= 6477 fps=6472 q=-1.0 size=   56832kB time=00:01:48.00 bitrate=4310.6kbits/s speed= 108x    frame= 7791 fps=5191 q=-1.0 size=   83456kB time=00:02:09.91 bitrate=5262.7kbits/s speed=86.6x    frame= 9165 fps=4580 q=-1.0 size=  111360kB time=00:02:32.76 bitrate=5971.8kbits/s speed=76.3x    frame=10573 fps=4227 q=-1.0 size=  139776kB time=00:02:56.21 bitrate=6498.0kbits/s speed=70.4x    frame=11994 fps=3994 q=-1.0 size=  169216kB time=00:03:19.87 bitrate=6935.6kbits/s speed=66.6x    frame=13373 fps=3817 q=-1.0 size=  198144kB time=00:03:42.87 bitrate=7282.9kbits/s speed=63.6x    frame=14769 fps=3689 q=-1.0 size=  226816kB time=00:04:06.08 bitrate=7550.5kbits/s speed=61.5x    frame=16114 fps=3577 q=-1.0 size=  254976kB time=00:04:28.51 bitrate=7778.9kbits/s speed=59.6x    frame=17463 fps=3489 q=-1.0 size=  282880kB time=00:04:50.98 bitrate=7963.8kbits/s speed=58.1x    frame=18830 fps=3421 q=-1.0 size=  311296kB time=00:05:13.77 bitrate=8127.4kbits/s speed=  57x    frame=20192 fps=3362 q=-1.0 size=  339712kB time=00:05:36.44 bitrate=8271.5kbits/s speed=  56x    frame=21610 fps=3322 q=-1.0 size=  368640kB time=00:06:00.07 bitrate=8386.9kbits/s speed=55.4x    frame=23017 fps=3285 q=-1.0 size=  397568kB time=00:06:23.49 bitrate=8492.7kbits/s speed=54.7x    frame=24352 fps=3244 q=-1.0 size=  425472kB time=00:06:45.74 bitrate=8590.3kbits/s speed=54.1x    frame=25701 fps=3210 q=-1.0 size=  453632kB time=00:07:08.21 bitrate=8678.3kbits/s speed=53.5x    frame=27050 fps=3180 q=-1.0 size=  481536kB time=00:07:30.69 bitrate=8752.6kbits/s speed=  53x    frame=28471 fps=3161 q=-1.0 size=  510208kB time=00:07:54.35 bitrate=8811.2kbits/s speed=52.7x    frame=29859 fps=3140 q=-1.0 size=  539392kB time=00:08:17.47 bitrate=8882.3kbits/s speed=52.3x    frame=31261 fps=3124 q=-1.0 size=  568320kB time=00:08:40.84 bitrate=8938.7kbits/s speed=  52x    frame=32657 fps=3107 q=-1.0 size=  597504kB time=00:09:04.06 bitrate=8996.6kbits/s speed=51.8x    frame=34029 fps=3091 q=-1.0 size=  625920kB time=00:09:26.94 bitrate=9044.2kbits/s speed=51.5x    frame=35415 fps=3077 q=-1.0 size=  654848kB time=00:09:50.03 bitrate=9091.8kbits/s speed=51.3x    frame=36822 fps=3065 q=-1.0 size=  684032kB time=00:10:13.44 bitrate=9134.7kbits/s speed=51.1x    frame=38240 fps=3056 q=-1.0 size=  713472kB time=00:10:37.06 bitrate=9174.5kbits/s speed=50.9x    frame=39604 fps=3043 q=-1.0 size=  742144kB time=00:10:59.79 bitrate=9214.4kbits/s speed=50.7x    frame=40986 fps=3033 q=-1.0 size=  770560kB time=00:11:22.78 bitrate=9245.1kbits/s speed=50.5x    frame=42346 fps=3022 q=-1.0 size=  798976kB time=00:11:45.46 bitrate=9277.9kbits/s speed=50.3x    frame=43748 fps=3014 q=-1.0 size=  827904kB time=00:12:08.82 bitrate=9305.7kbits/s speed=50.2x    frame=45175 fps=3009 q=-1.0 size=  857856kB time=00:12:32.57 bitrate=9338.0kbits/s speed=50.1x    frame=46545 fps=3000 q=-1.0 size=  886272kB time=00:12:55.38 bitrate=9363.5kbits/s speed=  50x    frame=47931 fps=2992 q=-1.0 size=  915200kB time=00:13:18.47 bitrate=9389.5kbits/s speed=49.9x    frame=49330 fps=2986 q=-1.0 size=  943616kB time=00:13:41.79 bitrate=9406.4kbits/s speed=49.8x    frame=50743 fps=2981 q=-1.0 size=  973056kB time=00:14:05.34 bitrate=9429.6kbits/s speed=49.7x    frame=52115 fps=2974 q=-1.0 size= 1001728kB time=00:14:28.19 bitrate=9452.0kbits/s speed=49.6x    frame=53508 fps=2969 q=-1.0 size= 1030400kB time=00:14:51.38 bitrate=9469.5kbits/s speed=49.5x    frame=54854 fps=2961 q=-1.0 size= 1058560kB time=00:15:13.82 bitrate=9489.5kbits/s speed=49.3x    frame=56246 fps=2957 q=-1.0 size= 1087488kB time=00:15:37.01 bitrate=9507.5kbits/s speed=49.3x    frame=57659 fps=2953 q=-1.0 size= 1116928kB time=00:16:00.55 bitrate=9525.6kbits/s speed=49.2x    frame=59032 fps=2948 q=-1.0 size= 1145344kB time=00:16:23.43 bitrate=9540.7kbits/s speed=49.1x    frame=60427 fps=2944 q=-1.0 size= 1174528kB time=00:16:46.66 bitrate=9558.0kbits/s speed=  49x    frame=61819 fps=2940 q=-1.0 size= 1203456kB time=00:17:09.84 bitrate=9573.0kbits/s speed=  49x    frame=63231 fps=2937 q=-1.0 size= 1232640kB time=00:17:33.35 bitrate=9586.3kbits/s speed=48.9x    frame=64586 fps=2932 q=-1.0 size= 1260800kB time=00:17:55.93 bitrate=9599.5kbits/s speed=48.8x    frame=65990 fps=2929 q=-1.0 size= 1289984kB time=00:18:19.32 bitrate=9612.7kbits/s speed=48.8x    frame=67373 fps=2926 q=-1.0 size= 1319168kB time=00:18:42.34 bitrate=9628.7kbits/s speed=48.7x    frame=68797 fps=2924 q=-1.0 size= 1348352kB time=00:19:06.09 bitrate=9637.7kbits/s speed=48.7x    frame=70193 fps=2921 q=-1.0 size= 1377536kB time=00:19:29.30 bitrate=9650.8kbits/s speed=48.7x    frame=71626 fps=2920 q=-1.0 size= 1407488kB time=00:19:53.21 bitrate=9663.1kbits/s speed=48.6x    frame=73024 fps=2917 q=-1.0 size= 1436416kB time=00:20:16.47 bitrate=9673.1kbits/s speed=48.6x    frame=74397 fps=2914 q=-1.0 size= 1465088kB time=00:20:39.37 bitrate=9683.9kbits/s speed=48.5x    frame=75837 fps=2913 q=-1.0 size= 1494784kB time=00:21:03.36 bitrate=9692.6kbits/s speed=48.5x    frame=77285 fps=2913 q=-1.0 size= 1524992kB time=00:21:27.47 bitrate=9703.3kbits/s speed=48.5x    frame=78710 fps=2912 q=-1.0 size= 1554432kB time=00:21:51.19 bitrate=9711.7kbits/s speed=48.5x    frame=80163 fps=2912 q=-1.0 size= 1584896kB time=00:22:15.39 bitrate=9722.6kbits/s speed=48.5x    frame=81613 fps=2911 q=-1.0 size= 1615104kB time=00:22:39.57 bitrate=9731.7kbits/s speed=48.5x    frame=82961 fps=2907 q=-1.0 size= 1642752kB time=00:23:02.00 bitrate=9737.6kbits/s speed=48.4x    frame=84493 fps=2910 q=-1.0 size= 1673984kB time=00:23:27.55 bitrate=9742.6kbits/s speed=48.5x    frame=86065 fps=2914 q=-1.0 size= 1706752kB time=00:23:53.71 bitrate=9752.1kbits/s speed=48.5x    frame=87437 fps=2911 q=-1.0 size= 1735424kB time=00:24:16.55 bitrate=9760.4kbits/s speed=48.5x    frame=89014 fps=2915 q=-1.0 size= 1768192kB time=00:24:42.84 bitrate=9768.4kbits/s speed=48.6x    frame=90505 fps=2916 q=-1.0 size= 1799424kB time=00:25:07.69 bitrate=9777.1kbits/s speed=48.6x    frame=91886 fps=2914 q=-1.0 size= 1827840kB time=00:25:30.70 bitrate=9782.2kbits/s speed=48.5x    frame=93458 fps=2917 q=-1.0 size= 1860608kB time=00:25:56.86 bitrate=9790.2kbits/s speed=48.6x    frame=95026 fps=2920 q=-1.0 size= 1893376kB time=00:26:22.99 bitrate=9798.2kbits/s speed=48.6x    frame=96544 fps=2922 q=-1.0 size= 1924608kB time=00:26:48.27 bitrate=9803.3kbits/s speed=48.7x    frame=98107 fps=2925 q=-1.0 size= 1957632kB time=00:27:14.28 bitrate=9812.8kbits/s speed=48.7x    frame=99684 fps=2928 q=-1.0 size= 1990144kB time=00:27:40.55 bitrate=9817.9kbits/s speed=48.8x    frame=101156 fps=2928 q=-1.0 size= 2020864kB time=00:28:05.10 bitrate=9824.3kbits/s speed=48.8x    frame=102674 fps=2930 q=-1.0 size= 2052352kB time=00:28:30.39 bitrate=9829.8kbits/s speed=48.8x    frame=104145 fps=2930 q=-1.0 size= 2082816kB time=00:28:54.86 bitrate=9835.0kbits/s speed=48.8x    frame=105663 fps=2932 q=-1.0 size= 2114304kB time=00:29:20.14 bitrate=9840.3kbits/s speed=48.8x    frame=107208 fps=2934 q=-1.0 size= 2146560kB time=00:29:45.87 bitrate=9846.5kbits/s speed=48.9x    frame=108846 fps=2938 q=-1.0 size= 2180608kB time=00:30:13.18 bitrate=9852.0kbits/s speed=48.9x    frame=110226 fps=2936 q=-1.0 size= 2209280kB time=00:30:36.13 bitrate=9856.8kbits/s speed=48.9x    frame=111802 fps=2939 q=-1.0 size= 2242048kB time=00:31:02.40 bitrate=9861.9kbits/s speed=  49x    frame=113416 fps=2942 q=-1.0 size= 2275584kB time=00:31:29.27 bitrate=9867.1kbits/s speed=  49x    frame=114820 fps=2941 q=-1.0 size= 2304768kB time=00:31:52.65 bitrate=9871.4kbits/s speed=  49x    frame=116430 fps=2944 q=-1.0 size= 2338304kB time=00:32:19.50 bitrate=9876.4kbits/s speed=  49x    frame=118011 fps=2947 q=-1.0 size= 2371072kB time=00:32:45.84 bitrate=9880.7kbits/s speed=49.1x    frame=119462 fps=2946 q=-1.0 size= 2400000kB time=00:33:10.01 bitrate=9879.7kbits/s speed=49.1x    frame=121115 fps=2951 q=-1.0 size= 2433536kB time=00:33:37.54 bitrate=9881.1kbits/s speed=49.2x    frame=122687 fps=2953 q=-1.0 size= 2466048kB time=00:34:03.69 bitrate=9885.0kbits/s speed=49.2x    frame=124168 fps=2953 q=-1.0 size= 2497024kB time=00:34:28.37 bitrate=9889.7kbits/s speed=49.2x    frame=125681 fps=2954 q=-1.0 size= 2528256kB time=00:34:53.55 bitrate=9893.0kbits/s speed=49.2x    frame=127270 fps=2956 q=-1.0 size= 2561536kB time=00:35:20.05 bitrate=9897.9kbits/s speed=49.2x    frame=128695 fps=2955 q=-1.0 size= 2591232kB time=00:35:43.77 bitrate=9901.9kbits/s speed=49.2x    frame=130234 fps=2956 q=-1.0 size= 2622976kB time=00:36:09.38 bitrate=9904.8kbits/s speed=49.2x    frame=131642 fps=2955 q=-1.0 size= 2652416kB time=00:36:32.85 bitrate=9908.8kbits/s speed=49.2x    frame=133175 fps=2956 q=-1.0 size= 2684416kB time=00:36:58.38 bitrate=9912.9kbits/s speed=49.2x    frame=134629 fps=2955 q=-1.0 size= 2714624kB time=00:37:22.63 bitrate=9916.1kbits/s speed=49.2x    frame=136092 fps=2955 q=-1.0 size= 2745088kB time=00:37:46.99 bitrate=9919.6kbits/s speed=49.2x    frame=137556 fps=2955 q=-1.0 size= 2775296kB time=00:38:11.39 bitrate=9922.0kbits/s speed=49.2x    frame=139140 fps=2957 q=-1.0 size= 2808576kB time=00:38:37.75 bitrate=9926.8kbits/s speed=49.3x    frame=140673 fps=2958 q=-1.0 size= 2840320kB time=00:39:03.30 bitrate=9929.5kbits/s speed=49.3x    frame=142104 fps=2957 q=-1.0 size= 2870272kB time=00:39:27.13 bitrate=9933.2kbits/s speed=49.3x    frame=143711 fps=2960 q=-1.0 size= 2903296kB time=00:39:53.87 bitrate=9935.3kbits/s speed=49.3x    frame=145354 fps=2963 q=-1.0 size= 2937856kB time=00:40:21.25 bitrate=9939.9kbits/s speed=49.4x    frame=146769 fps=2961 q=-1.0 size= 2967040kB time=00:40:44.79 bitrate=9941.9kbits/s speed=49.3x    frame=148360 fps=2964 q=-1.0 size= 3000320kB time=00:41:11.32 bitrate=9945.5kbits/s speed=49.4x    frame=149933 fps=2965 q=-1.0 size= 3032832kB time=00:41:37.52 bitrate=9947.8kbits/s speed=49.4x    frame=151433 fps=2966 q=-1.0 size= 3064064kB time=00:42:02.49 bitrate=9950.8kbits/s speed=49.4x    frame=153050 fps=2968 q=-1.0 size= 3097600kB time=00:42:29.42 bitrate=9953.4kbits/s speed=49.4x    frame=154500 fps=2968 q=-1.0 size= 3127808kB time=00:42:53.60 bitrate=9956.1kbits/s speed=49.4x    frame=155985 fps=2968 q=-1.0 size= 3158528kB time=00:43:18.32 bitrate=9958.2kbits/s speed=49.4x    frame=157947 fps=2977 q=-1.0 size= 3190272kB time=00:43:51.03 bitrate=9933.2kbits/s speed=49.6x    frame=161044 fps=3007 q=-1.0 size= 3221504kB time=00:44:42.63 bitrate=9837.6kbits/s speed=50.1x    frame=164192 fps=3037 q=-1.0 size= 3249408kB time=00:45:35.05 bitrate=9732.6kbits/s speed=50.6x    frame=167828 fps=3076 q=-1.0 size= 3281664kB time=00:46:35.62 bitrate=9616.2kbits/s speed=51.2x    frame=172138 fps=3126 q=-1.0 size= 3312640kB time=00:47:47.42 bitrate=9463.9kbits/s speed=52.1x    frame=174605 fps=3142 q=-1.0 size= 3341824kB time=00:48:28.50 bitrate=9412.5kbits/s speed=52.3x    frame=177033 fps=3157 q=-1.0 size= 3375360kB time=00:49:08.97 bitrate=9376.5kbits/s speed=52.6x    frame=179323 fps=3170 q=-1.0 size= 3408640kB time=00:49:47.11 bitrate=9348.0kbits/s speed=52.8x    frame=181354 fps=3178 q=-1.0 size= 3438592kB time=00:50:20.95 bitrate=9324.5kbits/s speed=52.9x    frame=183534 fps=3188 q=-1.0 size= 3471360kB time=00:50:57.27 bitrate=9301.6kbits/s speed=53.1x    frame=185440 fps=3193 q=-1.0 size= 3502080kB time=00:51:29.02 bitrate=9287.4kbits/s speed=53.2x    frame=187433 fps=3200 q=-1.0 size= 3532032kB time=00:52:02.23 bitrate=9267.2kbits/s speed=53.3x    frame=189581 fps=3209 q=-1.0 size= 3563264kB time=00:52:38.00 bitrate=9243.3kbits/s speed=53.5x    frame=191693 fps=3218 q=-1.0 size= 3593984kB time=00:53:13.18 bitrate=9220.2kbits/s speed=53.6x    frame=193463 fps=3220 q=-1.0 size= 3620608kB time=00:53:42.68 bitrate=9203.5kbits/s speed=53.6x    frame=195162 fps=3222 q=-1.0 size= 3648256kB time=00:54:10.98 bitrate=9193.1kbits/s speed=53.7x    frame=196956 fps=3225 q=-1.0 size= 3675904kB time=00:54:40.87 bitrate=9178.3kbits/s speed=53.7x    frame=199604 fps=3241 q=-1.0 size= 3704320kB time=00:55:24.98 bitrate=9126.6kbits/s speed=  54x    frame=202006 fps=3254 q=-1.0 size= 3734528kB time=00:56:05.00 bitrate=9091.6kbits/s speed=54.2x    frame=205161 fps=3278 q=-1.0 size= 3763712kB time=00:56:57.56 bitrate=9021.7kbits/s speed=54.6x    frame=207231 fps=3285 q=-1.0 size= 3792896kB time=00:57:32.05 bitrate=9000.9kbits/s speed=54.7x    frame=209211 fps=3291 q=-1.0 size= 3823360kB time=00:58:05.04 bitrate=8987.3kbits/s speed=54.8x    frame=211740 fps=3304 q=-1.0 size= 3852032kB time=00:58:47.17 bitrate=8946.5kbits/s speed=  55x    frame=213912 fps=3312 q=-1.0 size= 3883008kB time=00:59:23.35 bitrate=8926.9kbits/s speed=55.2x    frame=216198 fps=3322 q=-1.0 size= 3915264kB time=01:00:01.43 bitrate=8905.9kbits/s speed=55.3x    frame=218354 fps=3330 q=-1.0 size= 3946752kB time=01:00:37.33 bitrate=8888.9kbits/s speed=55.5x    frame=220319 fps=3334 q=-1.0 size= 3975424kB time=01:01:10.05 bitrate=8873.6kbits/s speed=55.5x    frame=222505 fps=3342 q=-1.0 size= 4007168kB time=01:01:46.49 bitrate=8856.5kbits/s speed=55.7x    frame=224604 fps=3348 q=-1.0 size= 4038400kB time=01:02:21.46 bitrate=8842.1kbits/s speed=55.8x    frame=226618 fps=3353 q=-1.0 size= 4068096kB time=01:02:54.98 bitrate=8828.1kbits/s speed=55.9x    frame=228845 fps=3361 q=-1.0 size= 4100608kB time=01:03:32.09 bitrate=8812.0kbits/s speed=  56x    frame=230975 fps=3368 q=-1.0 size= 4133376kB time=01:04:07.57 bitrate=8800.5kbits/s speed=56.1x    frame=233040 fps=3373 q=-1.0 size= 4164096kB time=01:04:41.96 bitrate=8787.4kbits/s speed=56.2x    frame=235604 fps=3386 q=-1.0 size= 4196864kB time=01:05:24.66 bitrate=8760.2kbits/s speed=56.4x    frame=237948 fps=3395 q=-1.0 size= 4228608kB time=01:06:03.71 bitrate=8739.5kbits/s speed=56.6x    frame=239836 fps=3398 q=-1.0 size= 4258048kB time=01:06:35.16 bitrate=8731.0kbits/s speed=56.6x    frame=241969 fps=3404 q=-1.0 size= 4291072kB time=01:07:10.70 bitrate=8721.2kbits/s speed=56.7x    frame=245891 fps=3435 q=-1.0 size= 4322304kB time=01:08:16.02 bitrate=8644.6kbits/s speed=57.2x    frame=248818 fps=3451 q=-1.0 size= 4354304kB time=01:09:04.80 bitrate=8606.1kbits/s speed=57.5x    frame=252357 fps=3476 q=-1.0 size= 4386304kB time=01:10:03.76 bitrate=8547.7kbits/s speed=57.9x    frame=254258 fps=3479 q=-1.0 size= 4417024kB time=01:10:35.42 bitrate=8543.3kbits/s speed=57.9x    frame=256250 fps=3482 q=-1.0 size= 4447488kB time=01:11:08.60 bitrate=8535.3kbits/s speed=  58x    frame=258267 fps=3486 q=-1.0 size= 4478976kB time=01:11:42.23 bitrate=8528.5kbits/s speed=58.1x    frame=260243 fps=3489 q=-1.0 size= 4509696kB time=01:12:15.16 bitrate=8521.8kbits/s speed=58.1x    frame=262280 fps=3493 q=-1.0 size= 4540928kB time=01:12:49.05 bitrate=8514.3kbits/s speed=58.2x    frame=264401 fps=3498 q=-1.0 size= 4571904kB time=01:13:24.37 bitrate=8503.6kbits/s speed=58.3x    frame=266536 fps=3503 q=-1.0 size= 4602624kB time=01:13:59.94 bitrate=8492.2kbits/s speed=58.3x    frame=268509 fps=3506 q=-1.0 size= 4632064kB time=01:14:32.83 bitrate=8483.6kbits/s speed=58.4x    frame=270706 fps=3511 q=-1.0 size= 4664576kB time=01:15:09.40 bitrate=8473.9kbits/s speed=58.5x    frame=272365 fps=3510 q=-1.0 size= 4696320kB time=01:15:37.05 bitrate=8479.6kbits/s speed=58.5x    frame=273839 fps=3506 q=-1.0 size= 4725760kB time=01:16:01.60 bitrate=8486.8kbits/s speed=58.4x    frame=276509 fps=3518 q=-1.0 size= 4758016kB time=01:16:46.09 bitrate=8462.2kbits/s speed=58.6x    frame=278703 fps=3524 q=-1.0 size= 4788992kB time=01:17:22.62 bitrate=8450.3kbits/s speed=58.7x    frame=280946 fps=3530 q=-1.0 size= 4820736kB time=01:18:00.00 bitrate=8438.3kbits/s speed=58.8x    frame=283174 fps=3535 q=-1.0 size= 4853760kB time=01:18:37.14 bitrate=8429.3kbits/s speed=58.9x    frame=285169 fps=3538 q=-1.0 size= 4884992kB time=01:19:10.36 bitrate=8424.2kbits/s speed=58.9x    frame=287187 fps=3541 q=-1.0 size= 4916992kB time=01:19:43.98 bitrate=8419.8kbits/s speed=  59x    frame=289259 fps=3545 q=-1.0 size= 4950784kB time=01:20:18.51 bitrate=8416.9kbits/s speed=  59x    frame=291151 fps=3546 q=-1.0 size= 4983296kB time=01:20:50.02 bitrate=8417.1kbits/s speed=59.1x    frame=292768 fps=3544 q=-1.0 size= 5011968kB time=01:21:16.91 bitrate=8418.9kbits/s speed=  59x    frame=294606 fps=3545 q=-1.0 size= 5041920kB time=01:21:47.55 bitrate=8416.3kbits/s speed=59.1x    frame=296509 fps=3546 q=-1.0 size= 5075200kB time=01:22:19.25 bitrate=8417.5kbits/s speed=59.1x    frame=298433 fps=3548 q=-1.0 size= 5105920kB time=01:22:51.30 bitrate=8413.8kbits/s speed=59.1x    frame=300445 fps=3551 q=-1.0 size= 5137920kB time=01:23:24.83 bitrate=8409.8kbits/s speed=59.2x    frame=302435 fps=3553 q=-1.0 size= 5168896kB time=01:23:57.95 bitrate=8404.9kbits/s speed=59.2x    frame=304259 fps=3554 q=-1.0 size= 5198592kB time=01:24:28.37 bitrate=8402.5kbits/s speed=59.2x    frame=306217 fps=3556 q=-1.0 size= 5230848kB time=01:25:01.00 bitrate=8400.5kbits/s speed=59.2x    frame=310495 fps=3585 q=-1.0 size= 5260288kB time=01:26:12.25 bitrate=8331.4kbits/s speed=59.7x    frame=312708 fps=3590 q=-1.0 size= 5291264kB time=01:26:49.12 bitrate=8321.2kbits/s speed=59.8x    frame=315749 fps=3604 q=-1.0 size= 5322240kB time=01:27:39.81 bitrate=8289.2kbits/s speed=  60x    frame=317574 fps=3604 q=-1.0 size= 5350912kB time=01:28:10.21 bitrate=8286.0kbits/s speed=  60x    frame=319537 fps=3606 q=-1.0 size= 5379840kB time=01:28:42.89 bitrate=8279.6kbits/s speed=60.1x    frame=321784 fps=3611 q=-1.0 size= 5412096kB time=01:29:20.34 bitrate=8271.1kbits/s speed=60.1x    frame=324259 fps=3618 q=-1.0 size= 5443840kB time=01:30:01.55 bitrate=8256.1kbits/s speed=60.3x    frame=326497 fps=3623 q=-1.0 size= 5472768kB time=01:30:38.84 bitrate=8243.1kbits/s speed=60.4x    frame=329604 fps=3637 q=-1.0 size= 5504000kB time=01:31:30.58 bitrate=8212.0kbits/s speed=60.6x    frame=333742 fps=3663 q=-1.0 size= 5532928kB time=01:32:39.54 bitrate=8152.8kbits/s speed=  61x    frame=335759 fps=3664 q=-1.0 size= 5563136kB time=01:33:13.16 bitrate=8148.0kbits/s speed=  61x    frame=339570 fps=3686 q=-1.0 size= 5594368kB time=01:34:16.62 bitrate=8101.8kbits/s speed=61.4x    frame=341637 fps=3688 q=-1.0 size= 5624576kB time=01:34:51.06 bitrate=8096.3kbits/s speed=61.4x    frame=343735 fps=3691 q=-1.0 size= 5653760kB time=01:35:25.99 bitrate=8088.7kbits/s speed=61.5x    frame=345979 fps=3695 q=-1.0 size= 5685504kB time=01:36:03.40 bitrate=8081.3kbits/s speed=61.6x    frame=348259 fps=3700 q=-1.0 size= 5717760kB time=01:36:41.37 bitrate=8073.9kbits/s speed=61.6x    frame=350509 fps=3704 q=-1.0 size= 5749248kB time=01:37:18.86 bitrate=8066.3kbits/s speed=61.7x    frame=353071 fps=3711 q=-1.0 size= 5782784kB time=01:38:01.55 bitrate=8054.4kbits/s speed=61.8x    frame=355679 fps=3719 q=-1.0 size= 5815808kB time=01:38:44.96 bitrate=8041.1kbits/s speed=  62x    frame=357796 fps=3722 q=-1.0 size= 5848320kB time=01:39:20.23 bitrate=8038.2kbits/s speed=  62x    frame=359928 fps=3725 q=-1.0 size= 5883392kB time=01:39:55.76 bitrate=8038.5kbits/s speed=  62x    frame=361934 fps=3726 q=-1.0 size= 5916160kB time=01:40:29.17 bitrate=8038.4kbits/s speed=62.1x    frame=364360 fps=3732 q=-1.0 size= 5949184kB time=01:41:09.58 bitrate=8029.5kbits/s speed=62.2x    frame=366715 fps=3737 q=-1.0 size= 5981696kB time=01:41:48.82 bitrate=8021.5kbits/s speed=62.3x    frame=368582 fps=3737 q=-1.0 size= 6013184kB time=01:42:19.92 bitrate=8022.9kbits/s speed=62.3x    frame=370710 fps=3740 q=-1.0 size= 6043904kB time=01:42:55.34 bitrate=8017.6kbits/s speed=62.3x    frame=373745 fps=3751 q=-1.0 size= 6075648kB time=01:43:45.91 bitrate=7994.3kbits/s speed=62.5x    frame=377160 fps=3767 q=-1.0 size= 6106368kB time=01:44:42.79 bitrate=7962.0kbits/s speed=62.7x    frame=380122 fps=3777 q=-1.0 size= 6137344kB time=01:45:32.12 bitrate=7940.0kbits/s speed=62.9x    frame=382703 fps=3784 q=-1.0 size= 6170624kB time=01:46:15.15 bitrate=7929.2kbits/s speed=  63x    frame=384822 fps=3786 q=-1.0 size= 6202112kB time=01:46:50.45 bitrate=7925.8kbits/s speed=63.1x    frame=386889 fps=3788 q=-1.0 size= 6232576kB time=01:47:24.90 bitrate=7922.1kbits/s speed=63.1x    frame=389050 fps=3791 q=-1.0 size= 6264064kB time=01:48:00.89 bitrate=7917.9kbits/s speed=63.1x    frame=391172 fps=3793 q=-1.0 size= 6295552kB time=01:48:36.26 bitrate=7914.5kbits/s speed=63.2x    frame=393338 fps=3795 q=-1.0 size= 6325760kB time=01:49:12.33 bitrate=7908.7kbits/s speed=63.2x    frame=395401 fps=3797 q=-1.0 size= 6357504kB time=01:49:46.72 bitrate=7906.9kbits/s speed=63.2x    frame=397507 fps=3799 q=-1.0 size= 6388224kB time=01:50:21.78 bitrate=7903.1kbits/s speed=63.3x    frame=399510 fps=3800 q=-1.0 size= 6418176kB time=01:50:55.15 bitrate=7900.3kbits/s speed=63.3x    frame=403579 fps=3820 q=-1.0 size= 6447104kB time=01:52:02.98 bitrate=7855.8kbits/s speed=63.6x    frame=406208 fps=3827 q=-1.0 size= 6475264kB time=01:52:46.78 bitrate=7839.1kbits/s speed=63.8x    frame=408499 fps=3831 q=-1.0 size= 6503936kB time=01:53:24.95 bitrate=7829.6kbits/s speed=63.8x    frame=410538 fps=3832 q=-1.0 size= 6535168kB time=01:53:58.92 bitrate=7828.1kbits/s speed=63.8x    frame=412608 fps=3833 q=-1.0 size= 6565632kB time=01:54:33.41 bitrate=7825.2kbits/s speed=63.9x    frame=414776 fps=3835 q=-1.0 size= 6596096kB time=01:55:09.53 bitrate=7820.4kbits/s speed=63.9x    frame=416690 fps=3835 q=-1.0 size= 6628864kB time=01:55:41.40 bitrate=7823.1kbits/s speed=63.9x    frame=418575 fps=3835 q=-1.0 size= 6659328kB time=01:56:12.81 bitrate=7823.7kbits/s speed=63.9x    frame=420338 fps=3834 q=-1.0 size= 6688512kB time=01:56:42.19 bitrate=7825.0kbits/s speed=63.9x    frame=422240 fps=3833 q=-1.0 size= 6720000kB time=01:57:13.88 bitrate=7826.4kbits/s speed=63.9x    frame=424095 fps=3833 q=-1.0 size= 6750976kB time=01:57:44.77 bitrate=7828.1kbits/s speed=63.8x    frame=426120 fps=3834 q=-1.0 size= 6780672kB time=01:58:18.50 bitrate=7825.2kbits/s speed=63.9x    frame=428360 fps=3837 q=-1.0 size= 6813696kB time=01:58:55.83 bitrate=7822.2kbits/s speed=63.9x    frame=430454 fps=3838 q=-1.0 size= 6845440kB time=01:59:30.69 bitrate=7820.4kbits/s speed=63.9x    frame=434002 fps=3853 q=-1.0 size= 6874880kB time=02:00:29.82 bitrate=7789.8kbits/s speed=64.2x    frame=436764 fps=3860 q=-1.0 size= 6907648kB time=02:01:15.83 bitrate=7777.4kbits/s speed=64.3x    frame=439048 fps=3863 q=-1.0 size= 6939136kB time=02:01:53.86 bitrate=7772.3kbits/s speed=64.4x    frame=442350 fps=3875 q=-1.0 size= 6968832kB time=02:02:48.87 bitrate=7747.3kbits/s speed=64.6x    frame=444479 fps=3877 q=-1.0 size= 7001600kB time=02:03:24.33 bitrate=7746.4kbits/s speed=64.6x    frame=447575 fps=3887 q=-1.0 size= 7031552kB time=02:04:15.92 bitrate=7725.7kbits/s speed=64.7x    frame=449110 fps=3883 q=-1.0 size= 7063040kB time=02:04:41.48 bitrate=7733.8kbits/s speed=64.7x    frame=452127 fps=3892 q=-1.0 size= 7095808kB time=02:05:31.77 bitrate=7717.8kbits/s speed=64.8x    frame=453852 fps=3890 q=-1.0 size= 7126784kB time=02:06:00.51 bitrate=7722.0kbits/s speed=64.8x    frame=455470 fps=3888 q=-1.0 size= 7158016kB time=02:06:27.46 bitrate=7728.3kbits/s speed=64.8x    frame=457605 fps=3889 q=-1.0 size= 7189504kB time=02:07:03.02 bitrate=7726.1kbits/s speed=64.8x    frame=459419 fps=3888 q=-1.0 size= 7218176kB time=02:07:33.25 bitrate=7726.3kbits/s speed=64.8x    frame=460870 fps=3884 q=-1.0 size= 7246848kB time=02:07:57.44 bitrate=7732.5kbits/s speed=64.7x    frame=462601 fps=3882 q=-1.0 size= 7279616kB time=02:08:26.25 bitrate=7738.5kbits/s speed=64.7x    frame=464139 fps=3879 q=-1.0 size= 7310080kB time=02:08:51.91 bitrate=7745.1kbits/s speed=64.6x    frame=465953 fps=3878 q=-1.0 size= 7341312kB time=02:09:22.13 bitrate=7747.9kbits/s speed=64.6x    frame=467642 fps=3876 q=-1.0 size= 7373056kB time=02:09:50.25 bitrate=7753.3kbits/s speed=64.6x    frame=469938 fps=3879 q=-1.0 size= 7403520kB time=02:10:28.50 bitrate=7747.3kbits/s speed=64.6x    frame=472275 fps=3882 q=-1.0 size= 7435008kB time=02:11:07.45 bitrate=7741.7kbits/s speed=64.7x    frame=474043 fps=3880 q=-1.0 size= 7469824kB time=02:11:36.89 bitrate=7749.0kbits/s speed=64.6x    frame=475679 fps=3878 q=-1.0 size= 7501824kB time=02:12:04.15 bitrate=7755.4kbits/s speed=64.6x    frame=477622 fps=3878 q=-1.0 size= 7536384kB time=02:12:36.49 bitrate=7759.5kbits/s speed=64.6x    frame=479345 fps=3876 q=-1.0 size= 7570176kB time=02:13:05.20 bitrate=7766.2kbits/s speed=64.6x    frame=480945 fps=3873 q=-1.0 size= 7603456kB time=02:13:31.84 bitrate=7774.4kbits/s speed=64.5x    frame=482543 fps=3871 q=-1.0 size= 7636480kB time=02:13:58.49 bitrate=7782.3kbits/s speed=64.5x    frame=485050 fps=3875 q=-1.0 size= 7670784kB time=02:14:40.24 bitrate=7776.9kbits/s speed=64.6x    frame=486679 fps=3873 q=-1.0 size= 7702528kB time=02:15:07.40 bitrate=7782.9kbits/s speed=64.5x    frame=488305 fps=3870 q=-1.0 size= 7734528kB time=02:15:34.45 bitrate=7789.2kbits/s speed=64.5x    frame=489917 fps=3868 q=-1.0 size= 7768064kB time=02:16:01.34 bitrate=7797.2kbits/s speed=64.4x    frame=491688 fps=3866 q=-1.0 size= 7799296kB time=02:16:30.82 bitrate=7800.4kbits/s speed=64.4x    frame=493106 fps=3862 q=-1.0 size= 7828736kB time=02:16:54.43 bitrate=7807.4kbits/s speed=64.3x    frame=494715 fps=3860 q=-1.0 size= 7862272kB time=02:17:21.25 bitrate=7815.3kbits/s speed=64.3x    frame=497453 fps=3866 q=-1.0 size= 7890688kB time=02:18:06.84 bitrate=7800.4kbits/s speed=64.4x    frame=499191 fps=3865 q=-1.0 size= 7921920kB time=02:18:35.83 bitrate=7804.0kbits/s speed=64.4x    frame=500849 fps=3863 q=-1.0 size= 7954176kB time=02:19:03.41 bitrate=7809.8kbits/s speed=64.3x    frame=502519 fps=3860 q=-1.0 size= 7985408kB time=02:19:31.24 bitrate=7814.4kbits/s speed=64.3x    frame=504409 fps=3860 q=-1.0 size= 8014336kB time=02:20:02.74 bitrate=7813.3kbits/s speed=64.3x    frame=506953 fps=3865 q=-1.0 size= 8045056kB time=02:20:45.13 bitrate=7803.9kbits/s speed=64.4x    frame=510998 fps=3881 q=-1.0 size= 8072960kB time=02:21:52.54 bitrate=7769.0kbits/s speed=64.7x    frame=514318 fps=3891 q=-1.0 size= 8102400kB time=02:22:47.83 bitrate=7747.0kbits/s speed=64.8x    frame=517591 fps=3901 q=-1.0 size= 8132352kB time=02:23:42.35 bitrate=7726.5kbits/s speed=  65x    frame=520529 fps=3909 q=-1.0 size= 8160768kB time=02:24:31.28 bitrate=7709.7kbits/s speed=65.1x    frame=523466 fps=3916 q=-1.0 size= 8188672kB time=02:25:20.22 bitrate=7692.6kbits/s speed=65.2x    frame=526953 fps=3927 q=-1.0 size= 8218368kB time=02:26:18.32 bitrate=7669.4kbits/s speed=65.4x    frame=529137 fps=3929 q=-1.0 size= 8247552kB time=02:26:54.68 bitrate=7664.9kbits/s speed=65.5x    frame=530877 fps=3927 q=-1.0 size= 8278016kB time=02:27:23.70 bitrate=7668.0kbits/s speed=65.4x    frame=532837 fps=3927 q=-1.0 size= 8309760kB time=02:27:56.34 bitrate=7669.1kbits/s speed=65.4x    frame=535148 fps=3930 q=-1.0 size= 8339456kB time=02:28:34.82 bitrate=7663.3kbits/s speed=65.5x    frame=536951 fps=3929 q=-1.0 size= 8368896kB time=02:29:04.85 bitrate=7664.5kbits/s speed=65.4x    frame=538883 fps=3928 q=-1.0 size= 8400640kB time=02:29:37.03 bitrate=7666.0kbits/s speed=65.4x    frame=540713 fps=3927 q=-1.0 size= 8431616kB time=02:30:07.56 bitrate=7668.2kbits/s speed=65.4x    frame=542423 fps=3925 q=-1.0 size= 8461312kB time=02:30:36.05 bitrate=7670.9kbits/s speed=65.4x    frame=544145 fps=3924 q=-1.0 size= 8493312kB time=02:31:04.74 bitrate=7675.6kbits/s speed=65.4x    frame=547368 fps=3933 q=-1.0 size= 8522240kB time=02:31:58.42 bitrate=7656.4kbits/s speed=65.5x    frame=549302 fps=3932 q=-1.0 size= 8552192kB time=02:32:30.63 bitrate=7656.3kbits/s speed=65.5x    frame=551263 fps=3932 q=-1.0 size= 8584704kB time=02:33:03.31 bitrate=7658.0kbits/s speed=65.5x    frame=553219 fps=3932 q=-1.0 size= 8615680kB time=02:33:35.87 bitrate=7658.5kbits/s speed=65.5x    frame=555261 fps=3933 q=-1.0 size= 8646912kB time=02:34:09.92 bitrate=7658.0kbits/s speed=65.5x    frame=557149 fps=3932 q=-1.0 size= 8679424kB time=02:34:41.38 bitrate=7660.7kbits/s speed=65.5x    frame=558701 fps=3929 q=-1.0 size= 8710400kB time=02:35:07.21 bitrate=7666.7kbits/s speed=65.5x    frame=560484 fps=3928 q=-1.0 size= 8744192kB time=02:35:36.91 bitrate=7672.0kbits/s speed=65.4x    frame=562310 fps=3927 q=-1.0 size= 8777984kB time=02:36:07.37 bitrate=7676.6kbits/s speed=65.4x    frame=564517 fps=3929 q=-1.0 size= 8808960kB time=02:36:44.14 bitrate=7673.5kbits/s speed=65.4x    frame=566212 fps=3927 q=-1.0 size= 8840704kB time=02:37:12.38 bitrate=7678.1kbits/s speed=65.4x    frame=568264 fps=3927 q=-1.0 size= 8874240kB time=02:37:46.52 bitrate=7679.5kbits/s speed=65.4x    frame=570134 fps=3927 q=-1.0 size= 8905472kB time=02:38:17.65 bitrate=7681.2kbits/s speed=65.4x    frame=571907 fps=3926 q=-1.0 size= 8936960kB time=02:38:47.21 bitrate=7684.5kbits/s speed=65.4x    frame=573806 fps=3925 q=-1.0 size= 8970496kB time=02:39:18.84 bitrate=7687.8kbits/s speed=65.4x    frame=576136 fps=3928 q=-1.0 size= 9001472kB time=02:39:57.66 bitrate=7683.1kbits/s speed=65.4x    frame=577695 fps=3925 q=-1.0 size= 9032704kB time=02:40:23.61 bitrate=7689.0kbits/s speed=65.4x    frame=579437 fps=3923 q=-1.0 size= 9066496kB time=02:40:52.66 bitrate=7694.5kbits/s speed=65.4x    frame=581041 fps=3921 q=-1.0 size= 9097728kB time=02:41:19.35 bitrate=7699.7kbits/s speed=65.3x    frame=582551 fps=3918 q=-1.0 size= 9128704kB time=02:41:44.54 bitrate=7705.9kbits/s speed=65.3x    frame=584232 fps=3916 q=-1.0 size= 9162752kB time=02:42:12.52 bitrate=7712.4kbits/s speed=65.2x    frame=585805 fps=3913 q=-1.0 size= 9192448kB time=02:42:38.72 bitrate=7716.6kbits/s speed=65.2x    frame=587447 fps=3911 q=-1.0 size= 9223168kB time=02:43:06.08 bitrate=7720.8kbits/s speed=65.2x    frame=589057 fps=3909 q=-1.0 size= 9255936kB time=02:43:32.92 bitrate=7727.0kbits/s speed=65.1x    frame=590682 fps=3907 q=-1.0 size= 9286400kB time=02:43:59.99 bitrate=7731.1kbits/s speed=65.1x    frame=592248 fps=3904 q=-1.0 size= 9317632kB time=02:44:26.08 bitrate=7736.6kbits/s speed=  65x    frame=593976 fps=3903 q=-1.0 size= 9351168kB time=02:44:54.87 bitrate=7741.9kbits/s speed=  65x    frame=595589 fps=3901 q=-1.0 size= 9382656kB time=02:45:21.74 bitrate=7746.9kbits/s speed=  65x    frame=597116 fps=3898 q=-1.0 size= 9412608kB time=02:45:47.19 bitrate=7751.7kbits/s speed=64.9x    frame=598820 fps=3896 q=-1.0 size= 9444864kB time=02:46:15.57 bitrate=7756.2kbits/s speed=64.9x    frame=600321 fps=3893 q=-1.0 size= 9474560kB time=02:46:40.58 bitrate=7761.1kbits/s speed=64.9x    frame=602185 fps=3893 q=-1.0 size= 9506048kB time=02:47:11.63 bitrate=7762.8kbits/s speed=64.8x    frame=604529 fps=3895 q=-1.0 size= 9538560kB time=02:47:50.66 bitrate=7759.2kbits/s speed=64.9x    frame=606225 fps=3894 q=-1.0 size= 9569792kB time=02:48:18.92 bitrate=7762.8kbits/s speed=64.9x    frame=608580 fps=3896 q=-1.0 size= 9602304kB time=02:48:58.17 bitrate=7759.0kbits/s speed=64.9x    frame=610935 fps=3899 q=-1.0 size= 9635584kB time=02:49:37.39 bitrate=7755.9kbits/s speed=64.9x    frame=612323 fps=3895 q=-1.0 size= 9664512kB time=02:50:00.51 bitrate=7761.5kbits/s speed=64.9x    frame=614013 fps=3894 q=-1.0 size= 9695232kB time=02:50:28.68 bitrate=7764.8kbits/s speed=64.9x    frame=615474 fps=3891 q=-1.0 size= 9725440kB time=02:50:53.01 bitrate=7770.5kbits/s speed=64.8x    frame=617087 fps=3888 q=-1.0 size= 9755904kB time=02:51:19.85 bitrate=7774.5kbits/s speed=64.8x    frame=618693 fps=3886 q=-1.0 size= 9786880kB time=02:51:46.64 bitrate=7778.9kbits/s speed=64.7x    frame=620220 fps=3884 q=-1.0 size= 9818624kB time=02:52:12.08 bitrate=7784.9kbits/s speed=64.7x    frame=621821 fps=3882 q=-1.0 size= 9848832kB time=02:52:38.75 bitrate=7788.7kbits/s speed=64.7x    frame=623309 fps=3879 q=-1.0 size= 9879808kB time=02:53:03.53 bitrate=7794.6kbits/s speed=64.6x    frame=625003 fps=3877 q=-1.0 size= 9910528kB time=02:53:31.76 bitrate=7797.6kbits/s speed=64.6x    frame=626529 fps=3875 q=-1.0 size= 9940224kB time=02:53:57.17 bitrate=7802.0kbits/s speed=64.5x    frame=628038 fps=3872 q=-1.0 size= 9969408kB time=02:54:22.29 bitrate=7806.1kbits/s speed=64.5x    frame=629631 fps=3870 q=-1.0 size=10000384kB time=02:54:48.80 bitrate=7810.5kbits/s speed=64.5x    frame=631223 fps=3868 q=-1.0 size=10031104kB time=02:55:15.34 bitrate=7814.8kbits/s speed=64.4x    frame=632707 fps=3865 q=-1.0 size=10062080kB time=02:55:40.02 bitrate=7820.5kbits/s speed=64.4x    frame=634947 fps=3867 q=-1.0 size=10092288kB time=02:56:17.32 bitrate=7816.3kbits/s speed=64.4x    frame=637001 fps=3868 q=-1.0 size=10122752kB time=02:56:51.57 bitrate=7814.6kbits/s speed=64.4x    frame=639361 fps=3870 q=-1.0 size=10153216kB time=02:57:30.90 bitrate=7809.2kbits/s speed=64.5x    frame=641070 fps=3869 q=-1.0 size=10181376kB time=02:57:59.37 bitrate=7810.0kbits/s speed=64.4x    frame=642883 fps=3868 q=-1.0 size=10213376kB time=02:58:29.56 bitrate=7812.5kbits/s speed=64.4x    frame=644692 fps=3867 q=-1.0 size=10243840kB time=02:58:59.72 bitrate=7813.7kbits/s speed=64.4x    frame=646404 fps=3866 q=-1.0 size=10274560kB time=02:59:28.23 bitrate=7816.4kbits/s speed=64.4x    frame=649192 fps=3871 q=-1.0 size=10307584kB time=03:00:14.67 bitrate=7807.9kbits/s speed=64.5x    frame=651127 fps=3871 q=-1.0 size=10338048kB time=03:00:46.91 bitrate=7807.7kbits/s speed=64.5x    frame=653185 fps=3872 q=-1.0 size=10370816kB time=03:01:21.20 bitrate=7807.7kbits/s speed=64.5x    frame=655124 fps=3872 q=-1.0 size=10404352kB time=03:01:53.52 bitrate=7809.8kbits/s speed=64.5x    frame=656768 fps=3870 q=-1.0 size=10436864kB time=03:02:20.90 bitrate=7814.6kbits/s speed=64.5x    frame=659226 fps=3873 q=-1.0 size=10469376kB time=03:03:01.86 bitrate=7809.7kbits/s speed=64.5x    frame=660936 fps=3872 q=-1.0 size=10500608kB time=03:03:30.33 bitrate=7812.7kbits/s speed=64.5x    frame=662555 fps=3870 q=-1.0 size=10531584kB time=03:03:57.32 bitrate=7816.6kbits/s speed=64.5x    frame=664756 fps=3871 q=-1.0 size=10564352kB time=03:04:34.01 bitrate=7815.0kbits/s speed=64.5x    frame=667361 fps=3875 q=-1.0 size=10597120kB time=03:05:17.41 bitrate=7808.6kbits/s speed=64.6x    frame=668874 fps=3873 q=-1.0 size=10627584kB time=03:05:42.62 bitrate=7813.3kbits/s speed=64.5x    frame=670605 fps=3872 q=-1.0 size=10656000kB time=03:06:11.43 bitrate=7814.0kbits/s speed=64.5x    frame=672239 fps=3870 q=-1.0 size=10688000kB time=03:06:38.66 bitrate=7818.4kbits/s speed=64.5x    frame=673839 fps=3868 q=-1.0 size=10718208kB time=03:07:05.32 bitrate=7821.9kbits/s speed=64.4x    frame=675396 fps=3866 q=-1.0 size=10748416kB time=03:07:31.23 bitrate=7825.9kbits/s speed=64.4x    frame=678181 fps=3871 q=-1.0 size=10777344kB time=03:08:17.66 bitrate=7814.7kbits/s speed=64.5x    frame=680270 fps=3871 q=-1.0 size=10808576kB time=03:08:52.46 bitrate=7813.3kbits/s speed=64.5x    frame=682253 fps=3872 q=-1.0 size=10841344kB time=03:09:25.47 bitrate=7814.2kbits/s speed=64.5x    frame=684000 fps=3871 q=-1.0 size=10872576kB time=03:09:54.59 bitrate=7816.7kbits/s speed=64.5x    frame=685697 fps=3869 q=-1.0 size=10902528kB time=03:10:22.87 bitrate=7818.8kbits/s speed=64.5x    frame=687944 fps=3871 q=-1.0 size=10932736kB time=03:11:00.27 bitrate=7814.9kbits/s speed=64.5x    frame=689782 fps=3871 q=-1.0 size=10965760kB time=03:11:30.88 bitrate=7817.6kbits/s speed=64.5x    frame=691945 fps=3872 q=-1.0 size=10995456kB time=03:12:06.93 bitrate=7814.3kbits/s speed=64.5x    frame=693727 fps=3871 q=-1.0 size=11028480kB time=03:12:36.60 bitrate=7817.6kbits/s speed=64.5x    frame=695592 fps=3870 q=-1.0 size=11060480kB time=03:13:07.66 bitrate=7819.3kbits/s speed=64.5x    frame=697398 fps=3870 q=-1.0 size=11091712kB time=03:13:37.78 bitrate=7821.1kbits/s speed=64.5x    frame=699127 fps=3869 q=-1.0 size=11123712kB time=03:14:06.58 bitrate=7824.2kbits/s speed=64.4x    frame=701111 fps=3869 q=-1.0 size=11157248kB time=03:14:39.62 bitrate=7825.6kbits/s speed=64.4x    frame=703965 fps=3874 q=-1.0 size=11187712kB time=03:15:27.15 bitrate=7815.2kbits/s speed=64.5x    frame=706840 fps=3879 q=-1.0 size=11217920kB time=03:16:15.06 bitrate=7804.4kbits/s speed=64.6x    frame=708852 fps=3879 q=-1.0 size=11251456kB time=03:16:48.56 bitrate=7805.5kbits/s speed=64.6x    frame=711552 fps=3884 q=-1.0 size=11281664kB time=03:17:33.52 bitrate=7796.8kbits/s speed=64.7x    frame=713325 fps=3883 q=-1.0 size=11311872kB time=03:18:03.09 bitrate=7798.2kbits/s speed=64.7x    frame=714823 fps=3880 q=-1.0 size=11342592kB time=03:18:28.04 bitrate=7803.0kbits/s speed=64.6x    frame=716520 fps=3879 q=-1.0 size=11373056kB time=03:18:56.30 bitrate=7805.4kbits/s speed=64.6x    frame=718235 fps=3878 q=-1.0 size=11406336kB time=03:19:24.91 bitrate=7809.6kbits/s speed=64.6x    frame=719790 fps=3876 q=-1.0 size=11438592kB time=03:19:50.79 bitrate=7814.7kbits/s speed=64.6x    frame=721334 fps=3873 q=-1.0 size=11469568kB time=03:20:16.50 bitrate=7819.1kbits/s speed=64.5x    frame=723017 fps=3872 q=-1.0 size=11501312kB time=03:20:44.53 bitrate=7822.5kbits/s speed=64.5x    frame=724598 fps=3870 q=-1.0 size=11533568kB time=03:21:10.90 bitrate=7827.3kbits/s speed=64.5x    frame=726057 fps=3868 q=-1.0 size=11563776kB time=03:21:35.19 bitrate=7832.1kbits/s speed=64.4x    frame=727538 fps=3865 q=-1.0 size=11594496kB time=03:21:59.89 bitrate=7836.9kbits/s speed=64.4x    frame=729242 fps=3864 q=-1.0 size=11627520kB time=03:22:28.28 bitrate=7840.8kbits/s speed=64.4x    frame=731652 fps=3866 q=-1.0 size=11657216kB time=03:23:08.41 bitrate=7835.0kbits/s speed=64.4x    frame=733620 fps=3867 q=-1.0 size=11689984kB time=03:23:41.22 bitrate=7835.9kbits/s speed=64.4x    frame=736078 fps=3869 q=-1.0 size=11719936kB time=03:24:22.16 bitrate=7829.8kbits/s speed=64.5x    frame=737902 fps=3869 q=-1.0 size=11747584kB time=03:24:52.54 bitrate=7828.8kbits/s speed=64.4x    frame=739647 fps=3868 q=-1.0 size=11778816kB time=03:25:21.57 bitrate=7831.1kbits/s speed=64.4x    frame=741635 fps=3868 q=-1.0 size=11811840kB time=03:25:54.68 bitrate=7832.1kbits/s speed=64.4x    frame=743259 fps=3866 q=-1.0 size=11842304kB time=03:26:21.73 bitrate=7835.1kbits/s speed=64.4x    frame=744864 fps=3865 q=-1.0 size=11873536kB time=03:26:48.46 bitrate=7838.8kbits/s speed=64.4x    frame=747235 fps=3867 q=-1.0 size=11905536kB time=03:27:27.94 bitrate=7835.0kbits/s speed=64.4x    frame=748901 fps=3866 q=-1.0 size=11936256kB time=03:27:55.72 bitrate=7837.8kbits/s speed=64.4x    frame=750556 fps=3864 q=-1.0 size=11969280kB time=03:28:23.29 bitrate=7842.1kbits/s speed=64.4x    frame=752399 fps=3864 q=-1.0 size=12002560kB time=03:28:53.97 bitrate=7844.7kbits/s speed=64.4x    frame=753923 fps=3862 q=-1.0 size=12033024kB time=03:29:19.31 bitrate=7848.7kbits/s speed=64.3x    frame=755648 fps=3861 q=-1.0 size=12065536kB time=03:29:48.08 bitrate=7851.9kbits/s speed=64.3x    frame=757476 fps=3860 q=-1.0 size=12098816kB time=03:30:18.50 bitrate=7854.6kbits/s speed=64.3x    frame=759333 fps=3860 q=-1.0 size=12129024kB time=03:30:49.43 bitrate=7855.0kbits/s speed=64.3x    frame=761257 fps=3860 q=-1.0 size=12160000kB time=03:31:21.43 bitrate=7855.2kbits/s speed=64.3x    frame=763681 fps=3862 q=-1.0 size=12190976kB time=03:32:01.83 bitrate=7850.2kbits/s speed=64.3x    frame=765530 fps=3862 q=-1.0 size=12221952kB time=03:32:32.62 bitrate=7851.1kbits/s speed=64.3x    frame=767245 fps=3861 q=-1.0 size=12254208kB time=03:33:01.15 bitrate=7854.3kbits/s speed=64.3x    frame=768875 fps=3859 q=-1.0 size=12286464kB time=03:33:28.31 bitrate=7858.2kbits/s speed=64.3x    frame=770500 fps=3857 q=-1.0 size=12316928kB time=03:33:55.35 bitrate=7861.1kbits/s speed=64.3x    frame=772221 fps=3856 q=-1.0 size=12348672kB time=03:34:24.04 bitrate=7863.8kbits/s speed=64.2x    frame=774915 fps=3860 q=-1.0 size=12379136kB time=03:35:08.89 bitrate=7855.8kbits/s speed=64.3x    frame=776860 fps=3860 q=-1.0 size=12407296kB time=03:35:41.30 bitrate=7854.0kbits/s speed=64.3x    frame=778492 fps=3859 q=-1.0 size=12438016kB time=03:36:08.48 bitrate=7856.9kbits/s speed=64.3x    frame=780234 fps=3858 q=-1.0 size=12467968kB time=03:36:37.51 bitrate=7858.2kbits/s speed=64.3x    frame=781670 fps=3855 q=-1.0 size=12496640kB time=03:37:01.43 bitrate=7861.8kbits/s speed=64.2x    frame=783570 fps=3855 q=-1.0 size=12528128kB time=03:37:33.07 bitrate=7862.5kbits/s speed=64.2x    frame=785865 fps=3857 q=-1.0 size=12560384kB time=03:38:11.31 bitrate=7859.8kbits/s speed=64.3x    frame=787862 fps=3857 q=-1.0 size=12590336kB time=03:38:44.59 bitrate=7858.5kbits/s speed=64.3x    frame=790026 fps=3859 q=-1.0 size=12622080kB time=03:39:20.67 bitrate=7856.7kbits/s speed=64.3x    frame=792635 fps=3862 q=-1.0 size=12654080kB time=03:40:04.13 bitrate=7850.7kbits/s speed=64.3x    frame=794538 fps=3862 q=-1.0 size=12686080kB time=03:40:35.83 bitrate=7851.7kbits/s speed=64.3x    frame=796980 fps=3864 q=-1.0 size=12718080kB time=03:41:16.51 bitrate=7847.4kbits/s speed=64.4x    frame=799011 fps=3865 q=-1.0 size=12750336kB time=03:41:50.31 bitrate=7847.4kbits/s speed=64.4x    frame=800712 fps=3864 q=-1.0 size=12779776kB time=03:42:18.65 bitrate=7848.8kbits/s speed=64.4x    frame=802350 fps=3862 q=-1.0 size=12811776kB time=03:42:45.95 bitrate=7852.3kbits/s speed=64.3x    frame=804952 fps=3865 q=-1.0 size=12843264kB time=03:43:29.30 bitrate=7846.2kbits/s speed=64.4x    frame=806895 fps=3865 q=-1.0 size=12871936kB time=03:44:01.67 bitrate=7844.8kbits/s speed=64.4x    frame=808416 fps=3863 q=-1.0 size=12903680kB time=03:44:26.99 bitrate=7849.3kbits/s speed=64.4x    frame=809994 fps=3862 q=-1.0 size=12936192kB time=03:44:53.27 bitrate=7853.8kbits/s speed=64.3x    frame=811347 fps=3859 q=-1.0 size=12964352kB time=03:45:15.81 bitrate=7857.8kbits/s speed=64.3x    frame=812910 fps=3857 q=-1.0 size=12996864kB time=03:45:41.84 bitrate=7862.3kbits/s speed=64.3x    frame=814506 fps=3856 q=-1.0 size=13029888kB time=03:46:08.42 bitrate=7866.9kbits/s speed=64.2x    frame=816179 fps=3854 q=-1.0 size=13059328kB time=03:46:36.28 bitrate=7868.5kbits/s speed=64.2x    frame=817723 fps=3852 q=-1.0 size=13091328kB time=03:47:01.96 bitrate=7872.9kbits/s speed=64.2x    frame=819501 fps=3852 q=-1.0 size=13124608kB time=03:47:31.58 bitrate=7875.8kbits/s speed=64.2x    frame=821069 fps=3850 q=-1.0 size=13154304kB time=03:47:57.70 bitrate=7878.5kbits/s speed=64.1x    frame=822586 fps=3848 q=-1.0 size=13186048kB time=03:48:22.97 bitrate=7883.0kbits/s speed=64.1x    frame=824516 fps=3848 q=-1.0 size=13218048kB time=03:48:55.12 bitrate=7883.6kbits/s speed=64.1x    frame=826296 fps=3848 q=-1.0 size=13247488kB time=03:49:24.75 bitrate=7884.2kbits/s speed=64.1x    frame=827886 fps=3846 q=-1.0 size=13279232kB time=03:49:51.24 bitrate=7887.9kbits/s speed=64.1x    frame=829508 fps=3845 q=-1.0 size=13313024kB time=03:50:18.26 bitrate=7892.5kbits/s speed=  64x    frame=831169 fps=3843 q=-1.0 size=13346048kB time=03:50:45.95 bitrate=7896.2kbits/s speed=  64x    frame=832960 fps=3843 q=-1.0 size=13379584kB time=03:51:15.75 bitrate=7899.1kbits/s speed=  64x    frame=835295 fps=3845 q=-1.0 size=13411072kB time=03:51:54.66 bitrate=7895.5kbits/s speed=  64x    frame=836843 fps=3843 q=-1.0 size=13440000kB time=03:52:20.45 bitrate=7897.9kbits/s speed=  64x    frame=838660 fps=3842 q=-1.0 size=13471488kB time=03:52:50.71 bitrate=7899.3kbits/s speed=  64x    frame=840553 fps=3842 q=-1.0 size=13504768kB time=03:53:22.21 bitrate=7901.0kbits/s speed=  64x    frame=842208 fps=3841 q=-1.0 size=13536256kB time=03:53:49.77 bitrate=7903.8kbits/s speed=  64x    frame=844049 fps=3841 q=-1.0 size=13568256kB time=03:54:20.43 bitrate=7905.2kbits/s speed=  64x    frame=845690 fps=3839 q=-1.0 size=13598976kB time=03:54:47.79 bitrate=7907.8kbits/s speed=  64x    frame=847517 fps=3839 q=-1.0 size=13630976kB time=03:55:18.23 bitrate=7909.3kbits/s speed=  64x    frame=849261 fps=3838 q=-1.0 size=13662464kB time=03:55:47.26 bitrate=7911.3kbits/s speed=63.9x    frame=851075 fps=3838 q=-1.0 size=13693184kB time=03:56:17.49 bitrate=7912.2kbits/s speed=63.9x    frame=852804 fps=3837 q=-1.0 size=13725184kB time=03:56:46.28 bitrate=7914.6kbits/s speed=63.9x    frame=854648 fps=3836 q=-1.0 size=13757184kB time=03:57:17.04 bitrate=7915.9kbits/s speed=63.9x    frame=857124 fps=3839 q=-1.0 size=13787904kB time=03:57:58.28 bitrate=7910.6kbits/s speed=  64x    frame=858820 fps=3838 q=-1.0 size=13819648kB time=03:58:26.54 bitrate=7913.2kbits/s speed=63.9x    frame=860499 fps=3837 q=-1.0 size=13851648kB time=03:58:54.50 bitrate=7916.1kbits/s speed=63.9x    frame=862510 fps=3837 q=-1.0 size=13883648kB time=03:59:28.02 bitrate=7915.8kbits/s speed=63.9x    frame=864040 fps=3836 q=-1.0 size=13914112kB time=03:59:53.48 bitrate=7919.2kbits/s speed=63.9x    frame=865752 fps=3835 q=-1.0 size=13945856kB time=04:00:22.04 bitrate=7921.5kbits/s speed=63.9x    frame=867359 fps=3833 q=-1.0 size=13977088kB time=04:00:48.80 bitrate=7924.6kbits/s speed=63.9x    frame=869097 fps=3832 q=-1.0 size=14008576kB time=04:01:17.75 bitrate=7926.5kbits/s speed=63.8x    frame=870982 fps=3832 q=-1.0 size=14040832kB time=04:01:49.16 bitrate=7927.6kbits/s speed=63.8x    frame=872626 fps=3831 q=-1.0 size=14073088kB time=04:02:16.53 bitrate=7930.8kbits/s speed=63.8x    frame=874291 fps=3830 q=-1.0 size=14106112kB time=04:02:44.29 bitrate=7934.3kbits/s speed=63.8x    frame=876010 fps=3829 q=-1.0 size=14138880kB time=04:03:12.94 bitrate=7937.1kbits/s speed=63.8x    frame=877562 fps=3828 q=-1.0 size=14169600kB time=04:03:38.76 bitrate=7940.3kbits/s speed=63.8x    frame=879200 fps=3826 q=-1.0 size=14202624kB time=04:04:06.05 bitrate=7944.0kbits/s speed=63.7x    frame=880988 fps=3826 q=-1.0 size=14236672kB time=04:04:35.85 bitrate=7946.8kbits/s speed=63.7x    frame=882588 fps=3824 q=-1.0 size=14267904kB time=04:05:02.50 bitrate=7949.8kbits/s speed=63.7x    frame=884429 fps=3824 q=-1.0 size=14302464kB time=04:05:33.14 bitrate=7952.5kbits/s speed=63.7x    frame=886166 fps=3823 q=-1.0 size=14335744kB time=04:06:02.06 bitrate=7955.4kbits/s speed=63.7x    frame=887735 fps=3822 q=-1.0 size=14366464kB time=04:06:28.22 bitrate=7958.4kbits/s speed=63.7x    frame=889386 fps=3821 q=-1.0 size=14398720kB time=04:06:55.73 bitrate=7961.4kbits/s speed=63.6x    frame=890861 fps=3819 q=-1.0 size=14427648kB time=04:07:20.27 bitrate=7964.2kbits/s speed=63.6x    frame=892366 fps=3817 q=-1.0 size=14456832kB time=04:07:45.37 bitrate=7966.9kbits/s speed=63.6x    frame=893902 fps=3816 q=-1.0 size=14487808kB time=04:08:10.94 bitrate=7970.2kbits/s speed=63.6x    frame=895337 fps=3814 q=-1.0 size=14517504kB time=04:08:34.87 bitrate=7973.7kbits/s speed=63.5x    frame=897576 fps=3815 q=-1.0 size=14546432kB time=04:09:12.15 bitrate=7969.7kbits/s speed=63.6x    frame=899177 fps=3814 q=-1.0 size=14577664kB time=04:09:38.83 bitrate=7972.6kbits/s speed=63.5x    frame=900777 fps=3812 q=-1.0 size=14608896kB time=04:10:05.46 bitrate=7975.5kbits/s speed=63.5x    frame=902250 fps=3810 q=-1.0 size=14639616kB time=04:10:30.02 bitrate=7979.2kbits/s speed=63.5x    frame=903972 fps=3810 q=-1.0 size=14672384kB time=04:10:58.72 bitrate=7981.8kbits/s speed=63.5x    frame=905587 fps=3808 q=-1.0 size=14703872kB time=04:11:25.63 bitrate=7984.7kbits/s speed=63.4x    frame=907196 fps=3807 q=-1.0 size=14736384kB time=04:11:52.43 bitrate=7988.2kbits/s speed=63.4x    frame=908776 fps=3806 q=-1.0 size=14767360kB time=04:12:18.72 bitrate=7991.0kbits/s speed=63.4x    frame=910250 fps=3804 q=-1.0 size=14798080kB time=04:12:43.31 bitrate=7994.7kbits/s speed=63.4x    frame=911796 fps=3802 q=-1.0 size=14828288kB time=04:13:09.05 bitrate=7997.4kbits/s speed=63.3x    frame=913405 fps=3801 q=-1.0 size=14861568kB time=04:13:35.85 bitrate=8001.3kbits/s speed=63.3x    frame=914940 fps=3800 q=-1.0 size=14892544kB time=04:14:01.43 bitrate=8004.5kbits/s speed=63.3x    frame=916676 fps=3799 q=-1.0 size=14924032kB time=04:14:30.32 bitrate=8006.2kbits/s speed=63.3x    frame=918428 fps=3798 q=-1.0 size=14956800kB time=04:14:59.50 bitrate=8008.5kbits/s speed=63.3x    frame=919995 fps=3797 q=-1.0 size=14989312kB time=04:15:25.59 bitrate=8012.2kbits/s speed=63.3x    frame=921914 fps=3797 q=-1.0 size=15018752kB time=04:15:57.55 bitrate=8011.3kbits/s speed=63.3x    frame=925979 fps=3806 q=-1.0 size=15048704kB time=04:17:05.30 bitrate=7992.0kbits/s speed=63.4x    frame=927657 fps=3805 q=-1.0 size=15080960kB time=04:17:33.22 bitrate=7994.7kbits/s speed=63.4x    frame=929312 fps=3804 q=-1.0 size=15113472kB time=04:18:00.80 bitrate=7997.6kbits/s speed=63.4x    frame=930909 fps=3803 q=-1.0 size=15145472kB time=04:18:27.41 bitrate=8000.8kbits/s speed=63.3x    frame=932500 fps=3801 q=-1.0 size=15177728kB time=04:18:53.93 bitrate=8004.2kbits/s speed=63.3x    frame=934144 fps=3800 q=-1.0 size=15209472kB time=04:19:21.29 bitrate=8006.8kbits/s speed=63.3x    frame=935776 fps=3799 q=-1.0 size=15241728kB time=04:19:48.50 bitrate=8009.8kbits/s speed=63.3x    frame=937366 fps=3798 q=-1.0 size=15272704kB time=04:20:14.98 bitrate=8012.4kbits/s speed=63.3x    frame=938833 fps=3796 q=-1.0 size=15302400kB time=04:20:39.40 bitrate=8015.5kbits/s speed=63.2x    frame=940378 fps=3795 q=-1.0 size=15333632kB time=04:21:05.14 bitrate=8018.6kbits/s speed=63.2x    frame=941920 fps=3793 q=-1.0 size=15364864kB time=04:21:30.81 bitrate=8021.8kbits/s speed=63.2x    frame=943484 fps=3792 q=-1.0 size=15394304kB time=04:21:56.90 bitrate=8023.9kbits/s speed=63.2x    frame=945242 fps=3791 q=-1.0 size=15427328kB time=04:22:26.14 bitrate=8026.1kbits/s speed=63.2x    frame=946775 fps=3790 q=-1.0 size=15459584kB time=04:22:51.70 bitrate=8029.9kbits/s speed=63.1x    frame=948726 fps=3790 q=-1.0 size=15489280kB time=04:23:24.20 bitrate=8028.8kbits/s speed=63.1x    frame=950930 fps=3791 q=-1.0 size=15519744kB time=04:24:00.92 bitrate=8025.9kbits/s speed=63.2x    frame=952571 fps=3790 q=-1.0 size=15551232kB time=04:24:28.25 bitrate=8028.3kbits/s speed=63.1x    frame=954052 fps=3789 q=-1.0 size=15580928kB time=04:24:52.91 bitrate=8031.2kbits/s speed=63.1x    frame=955697 fps=3788 q=-1.0 size=15612160kB time=04:25:20.31 bitrate=8033.4kbits/s speed=63.1x    frame=957389 fps=3787 q=-1.0 size=15642880kB time=04:25:48.48 bitrate=8035.0kbits/s speed=63.1x    frame=960750 fps=3793 q=-1.0 size=15670528kB time=04:26:44.50 bitrate=8021.1kbits/s speed=63.2x    frame=962840 fps=3794 q=-1.0 size=15702528kB time=04:27:19.33 bitrate=8020.0kbits/s speed=63.2x    frame=964608 fps=3793 q=-1.0 size=15733504kB time=04:27:48.78 bitrate=8021.1kbits/s speed=63.2x    frame=966083 fps=3791 q=-1.0 size=15764224kB time=04:28:13.33 bitrate=8024.5kbits/s speed=63.2x    frame=967711 fps=3790 q=-1.0 size=15798016kB time=04:28:40.46 bitrate=8028.1kbits/s speed=63.1x    frame=969270 fps=3789 q=-1.0 size=15829760kB time=04:29:06.43 bitrate=8031.3kbits/s speed=63.1x    frame=970793 fps=3788 q=-1.0 size=15860224kB time=04:29:31.83 bitrate=8034.1kbits/s speed=63.1x    frame=972499 fps=3787 q=-1.0 size=15893504kB time=04:30:00.24 bitrate=8036.9kbits/s speed=63.1x    frame=975057 fps=3789 q=-1.0 size=15924224kB time=04:30:42.85 bitrate=8031.3kbits/s speed=63.1x    frame=978459 fps=3795 q=-1.0 size=15953920kB time=04:31:39.53 bitrate=8018.3kbits/s speed=63.2x    frame=981498 fps=3800 q=-1.0 size=15985664kB time=04:32:30.12 bitrate=8009.4kbits/s speed=63.3x    frame=983918 fps=3802 q=-1.0 size=16016384kB time=04:33:10.47 bitrate=8005.0kbits/s speed=63.3x    frame=986063 fps=3803 q=-1.0 size=16045824kB time=04:33:46.20 bitrate=8002.3kbits/s speed=63.3x    frame=988329 fps=3804 q=-1.0 size=16078336kB time=04:34:23.94 bitrate=8000.1kbits/s speed=63.4x    frame=991287 fps=3808 q=-1.0 size=16105984kB time=04:35:13.24 bitrate=7990.0kbits/s speed=63.4x    frame=993192 fps=3808 q=-1.0 size=16136704kB time=04:35:44.95 bitrate=7989.9kbits/s speed=63.4x    frame=995456 fps=3809 q=-1.0 size=16165888kB time=04:36:22.71 bitrate=7986.1kbits/s speed=63.5x    frame=997659 fps=3810 q=-1.0 size=16194048kB time=04:36:59.41 bitrate=7982.3kbits/s speed=63.5x    frame=999616 fps=3811 q=-1.0 size=16226816kB time=04:37:32.01 bitrate=7982.8kbits/s speed=63.5x    frame=1001766 fps=3812 q=-1.0 size=16259840kB time=04:38:07.84 bitrate=7981.9kbits/s speed=63.5x    frame=1003913 fps=3812 q=-1.0 size=16291072kB time=04:38:43.59 bitrate=7980.1kbits/s speed=63.5x    frame=1005841 fps=3813 q=-1.0 size=16321792kB time=04:39:15.68 bitrate=7979.9kbits/s speed=63.5x    frame=1008925 fps=3817 q=-1.0 size=16353792kB time=04:40:07.08 bitrate=7971.1kbits/s speed=63.6x    frame=1011025 fps=3818 q=-1.0 size=16384768kB time=04:40:42.03 bitrate=7969.6kbits/s speed=63.6x    frame=1013056 fps=3818 q=-1.0 size=16416512kB time=04:41:15.90 bitrate=7969.0kbits/s speed=63.6x    frame=1014825 fps=3818 q=-1.0 size=16449536kB time=04:41:45.37 bitrate=7971.1kbits/s speed=63.6x    frame=1017175 fps=3819 q=-1.0 size=16480512kB time=04:42:24.52 bitrate=7967.7kbits/s speed=63.6x    frame=1019028 fps=3819 q=-1.0 size=16510464kB time=04:42:55.41 bitrate=7967.6kbits/s speed=63.6x    frame=1021980 fps=3823 q=-1.0 size=16542720kB time=04:43:44.59 bitrate=7960.1kbits/s speed=63.7x    frame=1023627 fps=3822 q=-1.0 size=16573952kB time=04:44:12.03 bitrate=7962.3kbits/s speed=63.7x    frame=1025257 fps=3821 q=-1.0 size=16605440kB time=04:44:39.19 bitrate=7964.8kbits/s speed=63.6x    frame=1026962 fps=3820 q=-1.0 size=16635392kB time=04:45:07.60 bitrate=7965.9kbits/s speed=63.6x    frame=1028483 fps=3819 q=-1.0 size=16666624kB time=04:45:32.94 bitrate=7969.0kbits/s speed=63.6x    frame=1030323 fps=3818 q=-1.0 size=16698112kB time=04:46:03.61 bitrate=7969.8kbits/s speed=63.6x    frame=1033494 fps=3823 q=-1.0 size=16728320kB time=04:46:56.42 bitrate=7959.7kbits/s speed=63.7x    frame=1036468 fps=3827 q=-1.0 size=16759296kB time=04:47:45.99 bitrate=7951.6kbits/s speed=63.8x    frame=1039158 fps=3830 q=-1.0 size=16788992kB time=04:48:30.80 bitrate=7945.1kbits/s speed=63.8x    frame=1042001 fps=3833 q=-1.0 size=16820992kB time=04:49:18.14 bitrate=7938.5kbits/s speed=63.9x    frame=1045048 fps=3837 q=-1.0 size=16851200kB time=04:50:08.94 bitrate=7929.5kbits/s speed=63.9x    frame=1048118 fps=3842 q=-1.0 size=16880640kB time=04:51:00.06 bitrate=7920.1kbits/s speed=  64x    frame=1050926 fps=3845 q=-1.0 size=16912640kB time=04:51:46.86 bitrate=7913.9kbits/s speed=  64x    frame=1053485 fps=3847 q=-1.0 size=16943104kB time=04:52:29.53 bitrate=7908.9kbits/s speed=64.1x    frame=1055994 fps=3849 q=-1.0 size=16972288kB time=04:53:11.29 bitrate=7903.7kbits/s speed=64.1x    frame=1058642 fps=3852 q=-1.0 size=17003520kB time=04:53:55.41 bitrate=7898.5kbits/s speed=64.2x    frame=1060643 fps=3852 q=-1.0 size=17033984kB time=04:54:28.72 bitrate=7897.7kbits/s speed=64.2x    frame=1062497 fps=3852 q=-1.0 size=17066752kB time=04:54:59.64 bitrate=7899.1kbits/s speed=64.2x    frame=1064547 fps=3852 q=-1.0 size=17100544kB time=04:55:33.76 bitrate=7899.5kbits/s speed=64.2x    frame=1067334 fps=3855 q=-1.0 size=17130752kB time=04:56:20.23 bitrate=7892.8kbits/s speed=64.2x    frame=1069938 fps=3858 q=-1.0 size=17160704kB time=04:57:03.60 bitrate=7887.3kbits/s speed=64.3x    frame=1071850 fps=3858 q=-1.0 size=17192192kB time=04:57:35.45 bitrate=7887.7kbits/s speed=64.3x    frame=1073425 fps=3856 q=-1.0 size=17224192kB time=04:58:01.69 bitrate=7890.8kbits/s speed=64.2x    frame=1074985 fps=3855 q=-1.0 size=17256192kB time=04:58:27.69 bitrate=7894.0kbits/s speed=64.2x    frame=1076785 fps=3855 q=-1.0 size=17288960kB time=04:58:57.66 bitrate=7895.7kbits/s speed=64.2x    frame=1078671 fps=3855 q=-1.0 size=17320448kB time=04:59:29.12 bitrate=7896.3kbits/s speed=64.2x    frame=1080950 fps=3856 q=-1.0 size=17350400kB time=05:00:07.07 bitrate=7893.3kbits/s speed=64.2x    frame=1082611 fps=3855 q=-1.0 size=17383168kB time=05:00:34.76 bitrate=7896.0kbits/s speed=64.2x    frame=1084278 fps=3854 q=-1.0 size=17415168kB time=05:01:02.52 bitrate=7898.4kbits/s speed=64.2x    frame=1086440 fps=3855 q=-1.0 size=17445888kB time=05:01:38.55 bitrate=7896.6kbits/s speed=64.2x    frame=1088593 fps=3856 q=-1.0 size=17475328kB time=05:02:14.41 bitrate=7894.3kbits/s speed=64.2x    frame=1090198 fps=3854 q=-1.0 size=17505536kB time=05:02:41.13 bitrate=7896.3kbits/s speed=64.2x    frame=1091946 fps=3854 q=-1.0 size=17534720kB time=05:03:10.26 bitrate=7896.8kbits/s speed=64.2x    frame=1093835 fps=3854 q=-1.0 size=17566976kB time=05:03:41.72 bitrate=7897.6kbits/s speed=64.2x    frame=1096813 fps=3857 q=-1.0 size=17596160kB time=05:04:31.32 bitrate=7889.3kbits/s speed=64.3x    frame=1098868 fps=3858 q=-1.0 size=17626880kB time=05:05:05.56 bitrate=7888.3kbits/s speed=64.3x    frame=1100557 fps=3857 q=-1.0 size=17658880kB time=05:05:33.67 bitrate=7890.5kbits/s speed=64.2x    frame=1102289 fps=3856 q=-1.0 size=17689600kB time=05:06:02.51 bitrate=7891.8kbits/s speed=64.2x    frame=1104040 fps=3856 q=-1.0 size=17721600kB time=05:06:31.70 bitrate=7893.5kbits/s speed=64.2x    frame=1105778 fps=3855 q=-1.0 size=17753088kB time=05:07:00.66 bitrate=7895.1kbits/s speed=64.2x    frame=1107713 fps=3855 q=-1.0 size=17783552kB time=05:07:32.89 bitrate=7894.9kbits/s speed=64.2x    frame=1109467 fps=3854 q=-1.0 size=17815040kB time=05:08:02.10 bitrate=7896.3kbits/s speed=64.2x    frame=1111200 fps=3854 q=-1.0 size=17847552kB time=05:08:30.98 bitrate=7898.4kbits/s speed=64.2x    frame=1112836 fps=3853 q=-1.0 size=17878272kB time=05:08:58.23 bitrate=7900.4kbits/s speed=64.2x    frame=1114482 fps=3852 q=-1.0 size=17909760kB time=05:09:25.64 bitrate=7902.6kbits/s speed=64.2x    frame=1116155 fps=3851 q=-1.0 size=17941760kB time=05:09:53.48 bitrate=7904.9kbits/s speed=64.1x    frame=1117795 fps=3850 q=-1.0 size=17972992kB time=05:10:20.82 bitrate=7907.0kbits/s speed=64.1x    frame=1119466 fps=3849 q=-1.0 size=18004992kB time=05:10:48.68 bitrate=7909.2kbits/s speed=64.1x    frame=1121216 fps=3848 q=-1.0 size=18037504kB time=05:11:17.81 bitrate=7911.2kbits/s speed=64.1x    frame=1122939 fps=3848 q=-1.0 size=18070016kB time=05:11:46.53 bitrate=7913.3kbits/s speed=64.1x    frame=1124580 fps=3847 q=-1.0 size=18102016kB time=05:12:13.86 bitrate=7915.7kbits/s speed=64.1x    frame=1126267 fps=3846 q=-1.0 size=18134272kB time=05:12:41.96 bitrate=7917.9kbits/s speed=64.1x    frame=1127874 fps=3845 q=-1.0 size=18164480kB time=05:13:08.73 bitrate=7919.8kbits/s speed=  64x    frame=1129551 fps=3844 q=-1.0 size=18196480kB time=05:13:36.69 bitrate=7922.0kbits/s speed=  64x    frame=1131192 fps=3843 q=-1.0 size=18227200kB time=05:14:04.02 bitrate=7923.8kbits/s speed=  64x    frame=1132842 fps=3842 q=-1.0 size=18258688kB time=05:14:31.49 bitrate=7926.0kbits/s speed=  64x    frame=1134454 fps=3841 q=-1.0 size=18289408kB time=05:14:58.32 bitrate=7928.0kbits/s speed=  64x    frame=1136086 fps=3840 q=-1.0 size=18320640kB time=05:15:25.51 bitrate=7930.2kbits/s speed=  64x    frame=1138283 fps=3841 q=-1.0 size=18350592kB time=05:16:02.15 bitrate=7927.8kbits/s speed=  64x    frame=1140984 fps=3844 q=-1.0 size=18380288kB time=05:16:47.14 bitrate=7921.8kbits/s speed=  64x    frame=1143950 fps=3847 q=-1.0 size=18411776kB time=05:17:36.56 bitrate=7914.8kbits/s speed=64.1x    frame=1146371 fps=3849 q=-1.0 size=18442752kB time=05:18:16.88 bitrate=7911.4kbits/s speed=64.1x    frame=1149585 fps=3853 q=-1.0 size=18473472kB time=05:19:10.41 bitrate=7902.4kbits/s speed=64.2x    frame=1151450 fps=3853 q=-1.0 size=18506240kB time=05:19:41.49 bitrate=7903.6kbits/s speed=64.2x    frame=1154516 fps=3857 q=-1.0 size=18537216kB time=05:20:32.57 bitrate=7895.8kbits/s speed=64.2x    frame=1156951 fps=3858 q=-1.0 size=18568448kB time=05:21:13.09 bitrate=7892.5kbits/s speed=64.3x    frame=1159653 fps=3861 q=-1.0 size=18601216kB time=05:21:58.09 bitrate=7888.0kbits/s speed=64.3x    frame=1162304 fps=3863 q=-1.0 size=18631936kB time=05:22:42.27 bitrate=7883.0kbits/s speed=64.4x    frame=1164142 fps=3863 q=-1.0 size=18665216kB time=05:23:12.88 bitrate=7884.6kbits/s speed=64.4x    frame=1166280 fps=3864 q=-1.0 size=18694656kB time=05:23:48.47 bitrate=7882.6kbits/s speed=64.4x    frame=1168584 fps=3865 q=-1.0 size=18725120kB time=05:24:26.85 bitrate=7879.9kbits/s speed=64.4x    frame=1170312 fps=3864 q=-1.0 size=18757376kB time=05:24:55.63 bitrate=7881.8kbits/s speed=64.4x    frame=1172136 fps=3864 q=-1.0 size=18792192kB time=05:25:26.00 bitrate=7884.1kbits/s speed=64.4x    frame=1173935 fps=3863 q=-1.0 size=18824960kB time=05:25:55.98 bitrate=7885.8kbits/s speed=64.4x    frame=1175727 fps=3863 q=-1.0 size=18859264kB time=05:26:25.86 bitrate=7888.1kbits/s speed=64.3x    frame=1177675 fps=3863 q=-1.0 size=18893312kB time=05:26:58.30 bitrate=7889.3kbits/s speed=64.4x    frame=1179260 fps=3862 q=-1.0 size=18924544kB time=05:27:24.71 bitrate=7891.7kbits/s speed=64.3x    frame=1180829 fps=3861 q=-1.0 size=18954752kB time=05:27:50.85 bitrate=7893.8kbits/s speed=64.3x    frame=1182883 fps=3861 q=-1.0 size=18989056kB time=05:28:25.04 bitrate=7894.3kbits/s speed=64.3x    frame=1186926 fps=3868 q=-1.0 size=19019264kB time=05:29:32.40 bitrate=7880.0kbits/s speed=64.4x    frame=1188791 fps=3868 q=-1.0 size=19050496kB time=05:30:03.47 bitrate=7880.5kbits/s speed=64.4x    frame=1190414 fps=3867 q=-1.0 size=19083776kB time=05:30:30.49 bitrate=7883.5kbits/s speed=64.4x    frame=1192214 fps=3866 q=-1.0 size=19116800kB time=05:31:00.48 bitrate=7885.2kbits/s speed=64.4x    frame=1193898 fps=3865 q=-1.0 size=19151104kB time=05:31:28.55 bitrate=7888.2kbits/s speed=64.4x    frame=1196732 fps=3868 q=-1.0 size=19183616kB time=05:32:15.77 bitrate=7882.9kbits/s speed=64.4x    frame=1199429 fps=3871 q=-1.0 size=19213312kB time=05:33:00.71 bitrate=7877.4kbits/s speed=64.5x    frame=1201530 fps=3871 q=-1.0 size=19246592kB time=05:33:35.67 bitrate=7877.2kbits/s speed=64.5x    frame=1203531 fps=3871 q=-1.0 size=19279360kB time=05:34:09.02 bitrate=7877.5kbits/s speed=64.5x    frame=1205582 fps=3872 q=-1.0 size=19310080kB time=05:34:43.21 bitrate=7876.6kbits/s speed=64.5x    frame=1207336 fps=3871 q=-1.0 size=19341568kB time=05:35:12.42 bitrate=7878.0kbits/s speed=64.5x    frame=1209279 fps=3871 q=-1.0 size=19374592kB time=05:35:44.77 bitrate=7878.8kbits/s speed=64.5x    frame=1211140 fps=3871 q=-1.0 size=19407360kB time=05:36:15.77 bitrate=7880.0kbits/s speed=64.5x    frame=1213404 fps=3872 q=-1.0 size=19438336kB time=05:36:53.51 bitrate=7877.8kbits/s speed=64.5x    frame=1217038 fps=3877 q=-1.0 size=19467008kB time=05:37:54.02 bitrate=7865.9kbits/s speed=64.6x    frame=1218889 fps=3877 q=-1.0 size=19497216kB time=05:38:24.86 bitrate=7866.2kbits/s speed=64.6x    frame=1220411 fps=3876 q=-1.0 size=19528192kB time=05:38:50.22 bitrate=7868.8kbits/s speed=64.6x    frame=1221993 fps=3875 q=-1.0 size=19561472kB time=05:39:16.55 bitrate=7872.0kbits/s speed=64.5x    frame=1223470 fps=3873 q=-1.0 size=19591936kB time=05:39:41.16 bitrate=7874.8kbits/s speed=64.5x    frame=1224739 fps=3871 q=-1.0 size=19618560kB time=05:40:02.31 bitrate=7877.3kbits/s speed=64.5x    frame=1226327 fps=3870 q=-1.0 size=19651328kB time=05:40:28.77 bitrate=7880.2kbits/s speed=64.5x    frame=1227800 fps=3869 q=-1.0 size=19682048kB time=05:40:53.31 bitrate=7883.1kbits/s speed=64.4x    frame=1229345 fps=3867 q=-1.0 size=19714048kB time=05:41:19.04 bitrate=7886.0kbits/s speed=64.4x    frame=1230885 fps=3866 q=-1.0 size=19746048kB time=05:41:44.66 bitrate=7888.9kbits/s speed=64.4x    frame=1232357 fps=3865 q=-1.0 size=19776768kB time=05:42:09.19 bitrate=7891.8kbits/s speed=64.4x    frame=1233869 fps=3863 q=-1.0 size=19808000kB time=05:42:34.38 bitrate=7894.5kbits/s speed=64.4x    frame=1235402 fps=3862 q=-1.0 size=19840000kB time=05:42:59.92 bitrate=7897.5kbits/s speed=64.3x    frame=1236858 fps=3861 q=-1.0 size=19870208kB time=05:43:24.13 bitrate=7900.2kbits/s speed=64.3x    frame=1238263 fps=3859 q=-1.0 size=19899648kB time=05:43:47.57 bitrate=7902.9kbits/s speed=64.3x    frame=1239789 fps=3858 q=-1.0 size=19931392kB time=05:44:12.97 bitrate=7905.8kbits/s speed=64.3x    frame=1241312 fps=3856 q=-1.0 size=19962880kB time=05:44:38.36 bitrate=7908.6kbits/s speed=64.2x    frame=1242783 fps=3855 q=-1.0 size=19992832kB time=05:45:02.84 bitrate=7911.1kbits/s speed=64.2x    frame=1244360 fps=3854 q=-1.0 size=20025600kB time=05:45:29.10 bitrate=7914.0kbits/s speed=64.2x    frame=1245833 fps=3852 q=-1.0 size=20056320kB time=05:45:53.65 bitrate=7916.7kbits/s speed=64.2x    frame=1247348 fps=3851 q=-1.0 size=20087808kB time=05:46:18.91 bitrate=7919.5kbits/s speed=64.2x    frame=1248910 fps=3850 q=-1.0 size=20120320kB time=05:46:44.91 bitrate=7922.4kbits/s speed=64.1x    frame=1250336 fps=3849 q=-1.0 size=20150016kB time=05:47:08.67 bitrate=7925.1kbits/s speed=64.1x    frame=1251712 fps=3847 q=-1.0 size=20178432kB time=05:47:31.60 bitrate=7927.5kbits/s speed=64.1x    frame=1253285 fps=3846 q=-1.0 size=20211200kB time=05:47:57.81 bitrate=7930.4kbits/s speed=64.1x    frame=1254747 fps=3844 q=-1.0 size=20241920kB time=05:48:22.14 bitrate=7933.2kbits/s speed=  64x    frame=1256261 fps=3843 q=-1.0 size=20273152kB time=05:48:47.38 bitrate=7935.9kbits/s speed=  64x    frame=1257809 fps=3842 q=-1.0 size=20305408kB time=05:49:13.13 bitrate=7938.8kbits/s speed=  64x    frame=1259324 fps=3841 q=-1.0 size=20336896kB time=05:49:38.37 bitrate=7941.5kbits/s speed=  64x    frame=1260764 fps=3839 q=-1.0 size=20366848kB time=05:50:02.36 bitrate=7944.1kbits/s speed=  64x    frame=1262318 fps=3838 q=-1.0 size=20399104kB time=05:50:28.25 bitrate=7946.9kbits/s speed=63.9x    frame=1263798 fps=3837 q=-1.0 size=20429824kB time=05:50:52.88 bitrate=7949.6kbits/s speed=63.9x    frame=1265330 fps=3836 q=-1.0 size=20461568kB time=05:51:18.42 bitrate=7952.3kbits/s speed=63.9x    frame=1266957 fps=3835 q=-1.0 size=20495360kB time=05:51:45.47 bitrate=7955.2kbits/s speed=63.9x    frame=1268413 fps=3833 q=-1.0 size=20525824kB time=05:52:09.75 bitrate=7957.9kbits/s speed=63.9x    frame=1269830 fps=3832 q=-1.0 size=20555264kB time=05:52:33.36 bitrate=7960.4kbits/s speed=63.8x    frame=1271391 fps=3831 q=-1.0 size=20587776kB time=05:52:59.32 bitrate=7963.2kbits/s speed=63.8x    frame=1272902 fps=3830 q=-1.0 size=20618496kB time=05:53:24.52 bitrate=7965.6kbits/s speed=63.8x    frame=1274394 fps=3828 q=-1.0 size=20649472kB time=05:53:49.36 bitrate=7968.2kbits/s speed=63.8x    frame=1275974 fps=3827 q=-1.0 size=20682496kB time=05:54:15.72 bitrate=7971.1kbits/s speed=63.8x    frame=1277517 fps=3826 q=-1.0 size=20714496kB time=05:54:41.40 bitrate=7973.8kbits/s speed=63.7x    frame=1279072 fps=3825 q=-1.0 size=20747264kB time=05:55:07.31 bitrate=7976.7kbits/s speed=63.7x    frame=1280663 fps=3824 q=-1.0 size=20780032kB time=05:55:33.82 bitrate=7979.3kbits/s speed=63.7x    frame=1282200 fps=3823 q=-1.0 size=20812032kB time=05:55:59.45 bitrate=7982.0kbits/s speed=63.7x    frame=1283811 fps=3822 q=-1.0 size=20845568kB time=05:56:26.29 bitrate=7984.9kbits/s speed=63.7x    frame=1285339 fps=3821 q=-1.0 size=20877312kB time=05:56:51.73 bitrate=7987.5kbits/s speed=63.7x    frame=1286783 fps=3820 q=-1.0 size=20907264kB time=05:57:15.76 bitrate=7990.0kbits/s speed=63.6x    frame=1288274 fps=3818 q=-1.0 size=20938496kB time=05:57:40.64 bitrate=7992.7kbits/s speed=63.6x    frame=1289846 fps=3817 q=-1.0 size=20971008kB time=05:58:06.79 bitrate=7995.4kbits/s speed=63.6x    frame=1291300 fps=3816 q=-1.0 size=21001216kB time=05:58:31.02 bitrate=7997.9kbits/s speed=63.6x    frame=1292800 fps=3815 q=-1.0 size=21032448kB time=05:58:56.02 bitrate=8000.4kbits/s speed=63.5x    frame=1294403 fps=3814 q=-1.0 size=21065728kB time=05:59:22.69 bitrate=8003.2kbits/s speed=63.5x    frame=1295905 fps=3813 q=-1.0 size=21096960kB time=05:59:47.74 bitrate=8005.8kbits/s speed=63.5x    frame=1297375 fps=3811 q=-1.0 size=21127424kB time=06:00:12.22 bitrate=8008.2kbits/s speed=63.5x    frame=1298906 fps=3810 q=-1.0 size=21159168kB time=06:00:37.72 bitrate=8010.8kbits/s speed=63.5x    frame=1300407 fps=3809 q=-1.0 size=21189888kB time=06:01:02.74 bitrate=8013.2kbits/s speed=63.5x    frame=1301997 fps=3808 q=-1.0 size=21223168kB time=06:01:29.22 bitrate=8016.0kbits/s speed=63.4x    frame=1303551 fps=3807 q=-1.0 size=21255424kB time=06:01:55.10 bitrate=8018.6kbits/s speed=63.4x    frame=1305011 fps=3806 q=-1.0 size=21285888kB time=06:02:19.46 bitrate=8021.1kbits/s speed=63.4x    frame=1306492 fps=3805 q=-1.0 size=21316608kB time=06:02:44.13 bitrate=8023.6kbits/s speed=63.4x    frame=1307986 fps=3803 q=-1.0 size=21347584kB time=06:03:09.01 bitrate=8026.0kbits/s speed=63.4x    frame=1309411 fps=3802 q=-1.0 size=21377024kB time=06:03:32.75 bitrate=8028.4kbits/s speed=63.3x    frame=1310803 fps=3800 q=-1.0 size=21406208kB time=06:03:55.96 bitrate=8030.8kbits/s speed=63.3x    frame=1312357 fps=3799 q=-1.0 size=21438464kB time=06:04:21.85 bitrate=8033.3kbits/s speed=63.3x    frame=1313801 fps=3798 q=-1.0 size=21468672kB time=06:04:45.88 bitrate=8035.8kbits/s speed=63.3x    frame=1315242 fps=3797 q=-1.0 size=21498624kB time=06:05:09.91 bitrate=8038.2kbits/s speed=63.2x    frame=1316750 fps=3796 q=-1.0 size=21530112kB time=06:05:35.01 bitrate=8040.8kbits/s speed=63.2x    frame=1318189 fps=3794 q=-1.0 size=21559808kB time=06:05:58.96 bitrate=8043.1kbits/s speed=63.2x    frame=1319658 fps=3793 q=-1.0 size=21590272kB time=06:06:23.46 bitrate=8045.5kbits/s speed=63.2x    frame=1321179 fps=3792 q=-1.0 size=21622016kB time=06:06:48.79 bitrate=8048.0kbits/s speed=63.2x    frame=1322624 fps=3791 q=-1.0 size=21651968kB time=06:07:12.87 bitrate=8050.4kbits/s speed=63.1x    frame=1324013 fps=3789 q=-1.0 size=21681152kB time=06:07:36.00 bitrate=8052.8kbits/s speed=63.1x    frame=1325526 fps=3788 q=-1.0 size=21712384kB time=06:08:01.19 bitrate=8055.2kbits/s speed=63.1x    frame=1326966 fps=3787 q=-1.0 size=21742080kB time=06:08:25.15 bitrate=8057.4kbits/s speed=63.1x    frame=1328466 fps=3786 q=-1.0 size=21773568kB time=06:08:50.13 bitrate=8060.0kbits/s speed=63.1x    frame=1330016 fps=3785 q=-1.0 size=21805824kB time=06:09:15.96 bitrate=8062.5kbits/s speed=  63x    frame=1331546 fps=3784 q=-1.0 size=21836544kB time=06:09:41.45 bitrate=8064.6kbits/s speed=  63x    frame=1333110 fps=3783 q=-1.0 size=21869056kB time=06:10:07.51 bitrate=8067.1kbits/s speed=  63x    frame=1334547 fps=3781 q=-1.0 size=21899264kB time=06:10:31.45 bitrate=8069.6kbits/s speed=  63x    frame=1336003 fps=3780 q=-1.0 size=21929728kB time=06:10:55.69 bitrate=8072.0kbits/s speed=  63x    frame=1337518 fps=3779 q=-1.0 size=21961216kB time=06:11:20.94 bitrate=8074.4kbits/s speed=  63x    frame=1339099 fps=3778 q=-1.0 size=21993984kB time=06:11:47.28 bitrate=8076.9kbits/s speed=62.9x    frame=1340566 fps=3777 q=-1.0 size=22024448kB time=06:12:11.71 bitrate=8079.3kbits/s speed=62.9x    frame=1342044 fps=3776 q=-1.0 size=22055168kB time=06:12:36.33 bitrate=8081.6kbits/s speed=62.9x    frame=1343523 fps=3775 q=-1.0 size=22085888kB time=06:13:00.96 bitrate=8084.0kbits/s speed=62.9x    frame=1344971 fps=3774 q=-1.0 size=22115840kB time=06:13:25.09 bitrate=8086.2kbits/s speed=62.9x    frame=1346474 fps=3773 q=-1.0 size=22147072kB time=06:13:50.13 bitrate=8088.6kbits/s speed=62.8x    frame=1348047 fps=3772 q=-1.0 size=22180096kB time=06:14:16.34 bitrate=8091.2kbits/s speed=62.8x    frame=1349471 fps=3770 q=-1.0 size=22209536kB time=06:14:40.03 bitrate=8093.4kbits/s speed=62.8x    frame=1350948 fps=3769 q=-1.0 size=22240256kB time=06:15:04.64 bitrate=8095.8kbits/s speed=62.8x    frame=1352459 fps=3768 q=-1.0 size=22271744kB time=06:15:29.85 bitrate=8098.2kbits/s speed=62.8x    frame=1353896 fps=3767 q=-1.0 size=22301440kB time=06:15:53.75 bitrate=8100.4kbits/s speed=62.7x    frame=1355492 fps=3766 q=-1.0 size=22334208kB time=06:16:20.35 bitrate=8102.7kbits/s speed=62.7x    frame=1357051 fps=3765 q=-1.0 size=22366464kB time=06:16:46.30 bitrate=8105.1kbits/s speed=62.7x    frame=1358486 fps=3764 q=-1.0 size=22396160kB time=06:17:10.22 bitrate=8107.3kbits/s speed=62.7x    frame=1360014 fps=3763 q=-1.0 size=22427392kB time=06:17:35.65 bitrate=8109.5kbits/s speed=62.7x    frame=1361492 fps=3762 q=-1.0 size=22458368kB time=06:18:00.30 bitrate=8111.8kbits/s speed=62.7x    frame=1362966 fps=3761 q=-1.0 size=22488832kB time=06:18:24.84 bitrate=8114.1kbits/s speed=62.6x    frame=1364440 fps=3760 q=-1.0 size=22519552kB time=06:18:49.40 bitrate=8116.4kbits/s speed=62.6x    frame=1365953 fps=3759 q=-1.0 size=22551040kB time=06:19:14.61 bitrate=8118.7kbits/s speed=62.6x    frame=1367453 fps=3757 q=-1.0 size=22582272kB time=06:19:39.60 bitrate=8121.0kbits/s speed=62.6x    frame=1369032 fps=3757 q=-1.0 size=22615040kB time=06:20:05.90 bitrate=8123.4kbits/s speed=62.6x    frame=1370641 fps=3756 q=-1.0 size=22648320kB time=06:20:32.69 bitrate=8125.8kbits/s speed=62.6x    frame=1372113 fps=3755 q=-1.0 size=22679040kB time=06:20:57.23 bitrate=8128.1kbits/s speed=62.5x    frame=1373722 fps=3754 q=-1.0 size=22712576kB time=06:21:24.02 bitrate=8130.6kbits/s speed=62.5x    frame=1375355 fps=3753 q=-1.0 size=22746624kB time=06:21:51.23 bitrate=8133.1kbits/s speed=62.5x    frame=1376906 fps=3752 q=-1.0 size=22778880kB time=06:22:17.10 bitrate=8135.5kbits/s speed=62.5x    frame=1378483 fps=3752 q=-1.0 size=22811648kB time=06:22:43.35 bitrate=8137.9kbits/s speed=62.5x    frame=1379996 fps=3751 q=-1.0 size=22843136kB time=06:23:08.56 bitrate=8140.2kbits/s speed=62.5x    frame=1381480 fps=3750 q=-1.0 size=22873856kB time=06:23:33.26 bitrate=8142.4kbits/s speed=62.5x    frame=1383032 fps=3749 q=-1.0 size=22906368kB time=06:23:59.12 bitrate=8144.8kbits/s speed=62.4x    frame=1384595 fps=3748 q=-1.0 size=22938624kB time=06:24:25.14 bitrate=8147.1kbits/s speed=62.4x    frame=1386042 fps=3747 q=-1.0 size=22968832kB time=06:24:49.22 bitrate=8149.3kbits/s speed=62.4x    frame=1387547 fps=3746 q=-1.0 size=23000064kB time=06:25:14.32 bitrate=8151.5kbits/s speed=62.4x    frame=1389137 fps=3745 q=-1.0 size=23033088kB time=06:25:40.81 bitrate=8153.9kbits/s speed=62.4x    frame=1390601 fps=3744 q=-1.0 size=23063552kB time=06:26:05.21 bitrate=8156.0kbits/s speed=62.4x    frame=1392101 fps=3743 q=-1.0 size=23094784kB time=06:26:30.21 bitrate=8158.3kbits/s speed=62.4x    frame=1393668 fps=3742 q=-1.0 size=23127296kB time=06:26:56.27 bitrate=8160.6kbits/s speed=62.3x    frame=1395115 fps=3741 q=-1.0 size=23157248kB time=06:27:20.40 bitrate=8162.7kbits/s speed=62.3x    frame=1396628 fps=3740 q=-1.0 size=23188736kB time=06:27:45.60 bitrate=8164.9kbits/s speed=62.3x    frame=1398176 fps=3739 q=-1.0 size=23220224kB time=06:28:11.38 bitrate=8167.0kbits/s speed=62.3x    frame=1399627 fps=3738 q=-1.0 size=23250432kB time=06:28:35.55 bitrate=8169.1kbits/s speed=62.3x    frame=1401198 fps=3737 q=-1.0 size=23283200kB time=06:29:01.72 bitrate=8171.5kbits/s speed=62.3x    frame=1402742 fps=3736 q=-1.0 size=23315456kB time=06:29:27.42 bitrate=8173.8kbits/s speed=62.2x    frame=1404214 fps=3735 q=-1.0 size=23345920kB time=06:29:51.92 bitrate=8175.9kbits/s speed=62.2x    frame=1405739 fps=3734 q=-1.0 size=23377408kB time=06:30:17.35 bitrate=8178.0kbits/s speed=62.2x    frame=1407273 fps=3733 q=-1.0 size=23409664kB time=06:30:42.90 bitrate=8180.4kbits/s speed=62.2x    frame=1408689 fps=3732 q=-1.0 size=23438848kB time=06:31:06.47 bitrate=8182.4kbits/s speed=62.2x    frame=1410203 fps=3731 q=-1.0 size=23470336kB time=06:31:31.72 bitrate=8184.5kbits/s speed=62.2x    frame=1411679 fps=3730 q=-1.0 size=23501056kB time=06:31:56.30 bitrate=8186.7kbits/s speed=62.1x    frame=1413134 fps=3729 q=-1.0 size=23531520kB time=06:32:20.54 bitrate=8188.9kbits/s speed=62.1x    frame=1414638 fps=3728 q=-1.0 size=23562752kB time=06:32:45.57 bitrate=8191.0kbits/s speed=62.1x    frame=1416186 fps=3727 q=-1.0 size=23594752kB time=06:33:11.36 bitrate=8193.2kbits/s speed=62.1x    frame=1417696 fps=3726 q=-1.0 size=23625472kB time=06:33:36.51 bitrate=8195.1kbits/s speed=62.1x    frame=1419196 fps=3726 q=-1.0 size=23656704kB time=06:34:01.51 bitrate=8197.3kbits/s speed=62.1x    frame=1420742 fps=3725 q=-1.0 size=23689216kB time=06:34:27.26 bitrate=8199.6kbits/s speed=  62x    frame=1422185 fps=3724 q=-1.0 size=23718912kB time=06:34:51.29 bitrate=8201.6kbits/s speed=  62x    frame=1423629 fps=3722 q=-1.0 size=23748864kB time=06:35:15.34 bitrate=8203.6kbits/s speed=  62x    frame=1425183 fps=3722 q=-1.0 size=23781376kB time=06:35:41.21 bitrate=8205.9kbits/s speed=  62x    frame=1426634 fps=3721 q=-1.0 size=23811584kB time=06:36:05.38 bitrate=8207.9kbits/s speed=  62x    frame=1428203 fps=3720 q=-1.0 size=23844352kB time=06:36:31.51 bitrate=8210.2kbits/s speed=  62x    frame=1429745 fps=3719 q=-1.0 size=23876352kB time=06:36:57.17 bitrate=8212.4kbits/s speed=  62x    frame=1431176 fps=3718 q=-1.0 size=23906048kB time=06:37:21.00 bitrate=8214.3kbits/s speed=61.9x    frame=1432724 fps=3717 q=-1.0 size=23938048kB time=06:37:46.80 bitrate=8216.5kbits/s speed=61.9x    frame=1434282 fps=3716 q=-1.0 size=23970816kB time=06:38:12.75 bitrate=8218.8kbits/s speed=61.9x    frame=1435743 fps=3715 q=-1.0 size=24001280kB time=06:38:37.07 bitrate=8220.8kbits/s speed=61.9x    frame=1437281 fps=3714 q=-1.0 size=24033024kB time=06:39:02.73 bitrate=8222.9kbits/s speed=61.9x    frame=1438881 fps=3714 q=-1.0 size=24066304kB time=06:39:29.37 bitrate=8225.1kbits/s speed=61.9x    frame=1440375 fps=3713 q=-1.0 size=24097280kB time=06:39:54.25 bitrate=8227.2kbits/s speed=61.8x    frame=1441887 fps=3712 q=-1.0 size=24128768kB time=06:40:19.44 bitrate=8229.3kbits/s speed=61.8x    frame=1443534 fps=3711 q=-1.0 size=24163072kB time=06:40:46.89 bitrate=8231.6kbits/s speed=61.8x    frame=1445006 fps=3710 q=-1.0 size=24193792kB time=06:41:11.38 bitrate=8233.7kbits/s speed=61.8x    frame=1446565 fps=3710 q=-1.0 size=24226048kB time=06:41:37.36 bitrate=8235.7kbits/s speed=61.8x    frame=1448212 fps=3709 q=-1.0 size=24260096kB time=06:42:04.81 bitrate=8237.9kbits/s speed=61.8x    frame=1449571 fps=3708 q=-1.0 size=24288512kB time=06:42:27.42 bitrate=8239.9kbits/s speed=61.8x    frame=1451203 fps=3707 q=-1.0 size=24322304kB time=06:42:54.61 bitrate=8242.0kbits/s speed=61.8x    frame=1452779 fps=3706 q=-1.0 size=24354560kB time=06:43:20.88 bitrate=8244.0kbits/s speed=61.7x    frame=1454324 fps=3706 q=-1.0 size=24386816kB time=06:43:46.61 bitrate=8246.2kbits/s speed=61.7x    frame=1455869 fps=3705 q=-1.0 size=24418816kB time=06:44:12.34 bitrate=8248.2kbits/s speed=61.7x    frame=1457403 fps=3704 q=-1.0 size=24450816kB time=06:44:37.90 bitrate=8250.3kbits/s speed=61.7x    frame=1458897 fps=3703 q=-1.0 size=24481792kB time=06:45:02.75 bitrate=8252.3kbits/s speed=61.7x    frame=1460440 fps=3702 q=-1.0 size=24514304kB time=06:45:28.49 bitrate=8254.6kbits/s speed=61.7x    frame=1462020 fps=3702 q=-1.0 size=24547072kB time=06:45:54.80 bitrate=8256.7kbits/s speed=61.7x    frame=1463483 fps=3701 q=-1.0 size=24577280kB time=06:46:19.17 bitrate=8258.6kbits/s speed=61.6x    frame=1464984 fps=3700 q=-1.0 size=24608512kB time=06:46:44.18 bitrate=8260.6kbits/s speed=61.6x    frame=1466578 fps=3699 q=-1.0 size=24641536kB time=06:47:10.71 bitrate=8262.7kbits/s speed=61.6x    frame=1468047 fps=3698 q=-1.0 size=24672256kB time=06:47:35.18 bitrate=8264.7kbits/s speed=61.6x    frame=1469519 fps=3697 q=-1.0 size=24702976kB time=06:47:59.71 bitrate=8266.7kbits/s speed=61.6x    frame=1471092 fps=3697 q=-1.0 size=24735488kB time=06:48:25.91 bitrate=8268.7kbits/s speed=61.6x    frame=1472608 fps=3696 q=-1.0 size=24766208kB time=06:48:51.17 bitrate=8270.5kbits/s speed=61.6x    frame=1474216 fps=3695 q=-1.0 size=24799744kB time=06:49:17.92 bitrate=8272.7kbits/s speed=61.6x    frame=1475821 fps=3695 q=-1.0 size=24833024kB time=06:49:44.68 bitrate=8274.8kbits/s speed=61.5x    frame=1477252 fps=3693 q=-1.0 size=24862976kB time=06:50:08.52 bitrate=8276.7kbits/s speed=61.5x    frame=1478843 fps=3693 q=-1.0 size=24896000kB time=06:50:35.03 bitrate=8278.8kbits/s speed=61.5x    frame=1480408 fps=3692 q=-1.0 size=24928768kB time=06:51:01.09 bitrate=8280.9kbits/s speed=61.5x    frame=1481846 fps=3691 q=-1.0 size=24958208kB time=06:51:25.04 bitrate=8282.7kbits/s speed=61.5x    frame=1483438 fps=3690 q=-1.0 size=24991488kB time=06:51:51.56 bitrate=8284.8kbits/s speed=61.5x    frame=1485023 fps=3690 q=-1.0 size=25024512kB time=06:52:17.95 bitrate=8286.9kbits/s speed=61.5x    frame=1486487 fps=3689 q=-1.0 size=25054976kB time=06:52:42.33 bitrate=8288.8kbits/s speed=61.5x    frame=1487962 fps=3688 q=-1.0 size=25085696kB time=06:53:06.92 bitrate=8290.7kbits/s speed=61.4x    frame=1489565 fps=3687 q=-1.0 size=25118976kB time=06:53:33.63 bitrate=8292.8kbits/s speed=61.4x    frame=1490979 fps=3686 q=-1.0 size=25148416kB time=06:53:57.15 bitrate=8294.7kbits/s speed=61.4x    frame=1492511 fps=3686 q=-1.0 size=25180416kB time=06:54:22.69 bitrate=8296.7kbits/s speed=61.4x    frame=1494048 fps=3685 q=-1.0 size=25212416kB time=06:54:48.31 bitrate=8298.7kbits/s speed=61.4x    frame=1495560 fps=3684 q=-1.0 size=25243648kB time=06:55:13.45 bitrate=8300.6kbits/s speed=61.4x    frame=1497160 fps=3683 q=-1.0 size=25276928kB time=06:55:40.09 bitrate=8302.6kbits/s speed=61.4x    frame=1498687 fps=3683 q=-1.0 size=25308672kB time=06:56:05.53 bitrate=8304.6kbits/s speed=61.3x    frame=1500125 fps=3682 q=-1.0 size=25338624kB time=06:56:29.52 bitrate=8306.4kbits/s speed=61.3x    frame=1501691 fps=3681 q=-1.0 size=25371136kB time=06:56:55.60 bitrate=8308.4kbits/s speed=61.3x    frame=1503249 fps=3680 q=-1.0 size=25403648kB time=06:57:21.55 bitrate=8310.5kbits/s speed=61.3x    frame=1504682 fps=3679 q=-1.0 size=25433344kB time=06:57:45.43 bitrate=8312.2kbits/s speed=61.3x    frame=1506198 fps=3678 q=-1.0 size=25464832kB time=06:58:10.64 bitrate=8314.2kbits/s speed=61.3x    frame=1507743 fps=3678 q=-1.0 size=25497088kB time=06:58:36.38 bitrate=8316.2kbits/s speed=61.3x    frame=1509179 fps=3677 q=-1.0 size=25526784kB time=06:59:00.32 bitrate=8317.9kbits/s speed=61.2x    frame=1510758 fps=3676 q=-1.0 size=25559808kB time=06:59:26.63 bitrate=8320.0kbits/s speed=61.2x    frame=1512303 fps=3675 q=-1.0 size=25591808kB time=06:59:52.37 bitrate=8321.9kbits/s speed=61.2x    frame=1513742 fps=3674 q=-1.0 size=25621760kB time=07:00:16.34 bitrate=8323.7kbits/s speed=61.2x    frame=1515345 fps=3674 q=-1.0 size=25653504kB time=07:00:43.04 bitrate=8325.2kbits/s speed=61.2x    frame=1516827 fps=3673 q=-1.0 size=25684480kB time=07:01:07.73 bitrate=8327.1kbits/s speed=61.2x    frame=1518290 fps=3672 q=-1.0 size=25714944kB time=07:01:32.11 bitrate=8329.0kbits/s speed=61.2x    frame=1522068 fps=3677 q=-1.0 size=25745408kB time=07:02:35.06 bitrate=8318.1kbits/s speed=61.2x    frame=1525742 fps=3681 q=-1.0 size=25777664kB time=07:03:36.27 bitrate=8308.5kbits/s speed=61.3x    frame=1530222 fps=3687 q=-1.0 size=25808640kB time=07:04:50.90 bitrate=8294.1kbits/s speed=61.4x    frame=1534464 fps=3693 q=-1.0 size=25838592kB time=07:06:01.57 bitrate=8280.8kbits/s speed=61.5x    frame=1536269 fps=3693 q=-1.0 size=25871360kB time=07:06:31.63 bitrate=8281.5kbits/s speed=61.5x    frame=1537739 fps=3692 q=-1.0 size=25901824kB time=07:06:56.12 bitrate=8283.4kbits/s speed=61.5x    frame=1540356 fps=3694 q=-1.0 size=25933824kB time=07:07:39.70 bitrate=8279.5kbits/s speed=61.5x    frame=1542953 fps=3696 q=-1.0 size=25965568kB time=07:08:22.94 bitrate=8275.7kbits/s speed=61.6x    frame=1545499 fps=3697 q=-1.0 size=25995520kB time=07:09:05.37 bitrate=8271.6kbits/s speed=61.6x    frame=1548363 fps=3700 q=-1.0 size=26025728kB time=07:09:53.09 bitrate=8265.9kbits/s speed=61.6x    frame=1549925 fps=3699 q=-1.0 size=26057984kB time=07:10:19.09 bitrate=8267.8kbits/s speed=61.6x    frame=1552511 fps=3701 q=-1.0 size=26088448kB time=07:11:02.16 bitrate=8263.7kbits/s speed=61.7x    frame=1555540 fps=3704 q=-1.0 size=26120192kB time=07:11:52.62 bitrate=8257.6kbits/s speed=61.7x    frame=1557116 fps=3706 q=-1.0 Lsize=26129063kB time=07:12:18.85 bitrate=8252.1kbits/s speed=61.7x    
video:25451320kB audio:625607kB subtitle:0kB other streams:0kB global headers:0kB muxing overhead: 0.199929%
